<?xml version="1.0" encoding="UTF-8" standalone="no" ?>
<!DOCTYPE svg PUBLIC "-//W3C//DTD SVG 1.1//EN" "http://www.w3.org/Graphics/SVG/1.1/DTD/svg11.dtd">
<svg xmlns="http://www.w3.org/2000/svg" xmlns:xlink="http://www.w3.org/1999/xlink" version="1.1" width="1920" height="767.1473" viewBox="0 0 1920 767.1473" xml:space="preserve">
<desc>Created with Fabric.js 4.6.0</desc>
<defs>
</defs>
<g transform="matrix(-1 0 0 1 951.16 384.9)" id="1ZEJhEAkd_WsJAwJ37EJT"  >
<path style="stroke: none; stroke-width: 1; stroke-dasharray: none; stroke-linecap: butt; stroke-dashoffset: 0; stroke-linejoin: miter; stroke-miterlimit: 4; fill: rgb(255,255,255); fill-rule: nonzero; opacity: 1;" vector-effect="non-scaling-stroke"  transform=" translate(-960, -383.57)" d="M 0 97.60205 L 63.9936 153.39723 C 127.9872 209.19241 255.99360000000001 320.78377 384 395.06864 C 512.0064 470.73581 639.9936 505.6232 768 432.37423 C 896.0064 359.14546 1023.9936 170.83082000000002 1152 79.11146000000002 C 1280.0064 -13.989309999999975 1407.9936 -13.989309999999975 1536 23.31628000000002 C 1664.0064 59.23947000000002 1791.9936 135.96364000000003 1856.0064 171.86763000000002 L 1920 209.17322000000001 L 1920 767.14732 L 1856.0064 767.14732 C 1792.0128 767.14732 1664.0064 767.14732 1536 767.14732 C 1407.9936 767.14732 1280.0064 767.14732 1152 767.14732 C 1023.9936 767.14732 896.0064 767.14732 768 767.14732 C 639.9936 767.14732 512.0064 767.14732 384 767.14732 C 255.9936 767.14732 128.0064 767.14732 63.993600000000015 767.14732 L 1.4210854715202004e-14 767.14732 z" stroke-linecap="round" />
</g>
</svg>