<svg width="142" height="63" fill="none" xmlns="http://www.w3.org/2000/svg"><path d="m0 40.762 8.57 22.027h4.31l4.815-12.308 4.844 12.308h4.31l8.52-22.027H0Zm10.6 16.842-4.556-12.38h9.51l-4.953 12.38Zm18.923-12.38-4.953 12.38-4.558-12.38h9.511ZM82.472 40.762l-3.681 8.85h-2.65v-8.85h-4.11V62.79h4.11v-8.717h2.787l3.544 8.717h4.171L82.27 51.6l4.374-10.838h-4.171ZM141.301 51.601l.029-.074h-.06l-4.478-10.765h-11.858V62.79h11.858l4.482-11.119h.056l-.029-.07Zm-12.256 7.09V45.224h5.377l2.573 6.377-2.685 7.09h-5.265ZM49.544 45.224l1.486-4.462H38.398v22.027h10.154l1.487-4.133h-7.53v-4.583h4.21l1.486-4.46H42.51v-4.389h7.035ZM116.613 54.412l-6.137-13.65h-4.414V62.79h4.11V49.55l6.182 13.24h4.37V40.762h-4.111v13.65ZM66.087 45.224l1.487-4.462H54.94v22.027h10.156l1.486-4.133h-7.53v-4.583h4.21l1.487-4.46h-5.697v-4.389h7.034ZM100.859 45.224l1.487-4.462H89.715v22.027h10.153l1.487-4.133h-7.53v-4.583h4.211l1.487-4.46h-5.697v-4.389h7.033ZM38.635 8.741h-4.31l-8.52 22.029h21.4L38.634 8.74Zm-2.032 5.188 4.558 12.381H31.65l4.953-12.381ZM91.431 8.741h-4.31l-8.52 22.029h21.4l-8.57-22.029Zm-2.03 5.188 4.557 12.381h-9.511L89.4 13.93ZM35.46 5.61 37.543 0h4.506L39.92 5.562l-4.46.048ZM60.827 8.741H48.344v3.834h4.013V30.77h4.408V12.575h4.062V8.74ZM76.773 26.31h-7.53V8.741h-4.11v22.03h10.155l1.485-4.461ZM111.983 14.086l3.009-2.756s-2.787-3.483-6.204-3.446c-3.42.036-6.391 2.538-6.391 5.585s2.787 4.933 4.682 6.565c1.894 1.633 4.57 3.375 4.124 5.114-.447 1.741-3.27 2.25-4.458 1.089-1.19-1.16-1.711-2.321-1.711-2.321l-3.639 2.03s1.745 5.114 7.578 4.824c5.833-.29 6.984-5.15 6.427-7.398-.558-2.249-2.892-4.288-4.903-5.913-1.488-1.201-5.608-4.202-2.972-5.405 2.303-1.052 4.458 2.032 4.458 2.032Z" fill="#222227"/></svg>