<svg width="46" height="47" fill="none" xmlns="http://www.w3.org/2000/svg"><path fill-rule="evenodd" clip-rule="evenodd" d="M27.28 37.25a2.286 2.286 0 0 0 2.28-2.292v-4.583a2.286 2.286 0 0 0-2.28-2.292A2.286 2.286 0 0 0 25 30.375v4.583a2.286 2.286 0 0 0 2.28 2.292Zm-9.118 0a2.286 2.286 0 0 0 2.28-2.292v-4.583a2.286 2.286 0 0 0-2.28-2.292 2.286 2.286 0 0 0-2.28 2.292v4.583a2.286 2.286 0 0 0 2.28 2.292Zm20.515-27.5h-3.146l-3.943-7.906A2.28 2.28 0 0 0 29.665.44a2.276 2.276 0 0 0-2.12 1.078 2.302 2.302 0 0 0-.015 2.388l2.895 5.844h-15.41l2.895-5.844A2.297 2.297 0 0 0 16.834.98a2.273 2.273 0 0 0-2.982.864L9.91 9.75H6.763C3.436 9.8.629 12.25.11 15.554c-.517 3.304 1.405 6.503 4.554 7.58l1.687 17.095c.353 3.526 3.314 6.206 6.84 6.188h19.102c3.526.017 6.487-2.662 6.84-6.188l1.686-17.096c3.157-1.08 5.08-4.29 4.55-7.6-.53-3.31-3.358-5.754-6.693-5.783ZM34.55 39.77a2.284 2.284 0 0 1-2.28 2.063H13.169a2.284 2.284 0 0 1-2.28-2.062L9.27 23.5h26.899L34.55 39.77Zm4.128-20.854H6.764a2.286 2.286 0 0 1-2.28-2.291 2.286 2.286 0 0 1 2.28-2.292h31.914a2.286 2.286 0 0 1 2.28 2.292 2.286 2.286 0 0 1-2.28 2.291Z" fill="#272525"/></svg>