<svg width="109" height="94" fill="none" xmlns="http://www.w3.org/2000/svg"><circle cx="49.278" cy="42.78" r="42.78" fill="#EACEFF"/><path d="M106.633 28.745c-.907-.53-1.686-.96-2.437-1.43-1.277-.795-2.502-1.637-3.366-2.922-.876-1.306-.974-2.667-.175-3.982.492-.806 1.201-1.477 1.838-2.184.25-.274.582-.484 1.013-.837-.827-.045-1.477-.07-2.125-.122-1.584-.122-3.175-.178-4.742-.405-2.149-.3-3.113-1.684-2.736-3.834.149-.843.505-1.658.776-2.485.084-.248.201-.481.322-.769-1.442.441-2.807.881-4.179 1.264-3.202.891-4.393-1.398-4.088-3.689.081-.613.315-1.218.533-1.805.16-.388.505-.648.931-.468.388.16.405.55.313.934-.085.38-.198.758-.239 1.139-.048.445-.091.897-.051 1.344.116 1.256.735 1.786 1.987 1.603.884-.128 1.754-.386 2.614-.63.8-.227 1.594-.494 2.389-.761.41-.133.829-.253 1.183.074.407.374.246.833.099 1.257-.184.541-.447 1.05-.6 1.6-.201.69-.39 1.39-.478 2.095-.119.956.186 1.424 1.12 1.668.892.234 1.818.422 2.738.508 1.973.176 3.942.284 5.917.388.467.026.842.132 1.001.588.154.433-.094.742-.423 1.002-.587.46-1.202.903-1.764 1.392-.49.432-.987.884-1.388 1.394-1.077 1.361-1.023 2.48.083 3.808.83 1 1.827 1.808 2.925 2.489.79.492 1.61.933 2.414 1.391.427.242.867.492.781 1.081-.088.556-.557.74-1.024.896-.199.063-.406.095-.61.134-.411.072-.823.171-1.24.203-3.099.257-4.639 2.217-5.416 4.972-.142.508-.125 1.065-.164 1.6-.021.265.036.546-.016.802-.033.184-.163.442-.305.481-.156.046-.407-.087-.552-.186-.31-.222-.505-.649-.553-1.004-.093-.704-.144-1.44-.03-2.133.245-1.534.937-2.9 1.872-4.144.797-1.061 1.908-1.624 3.172-1.893.828-.164 1.659-.261 2.68-.424ZM16.227 91.156c-.18-1.034-.31-1.914-.49-2.782-.298-1.475-.659-2.917-1.561-4.176-.917-1.276-2.159-1.844-3.67-1.554-.927.179-1.803.61-2.688.959-.345.138-.657.376-1.139.657.247-.79.45-1.409.628-2.034.44-1.527.943-3.037 1.278-4.585.47-2.118-.49-3.505-2.637-3.903-.842-.155-1.73-.106-2.6-.14-.261-.01-.52.02-.833.032.918-1.197 1.807-2.322 2.645-3.474 1.954-2.689.225-4.605-2.028-5.12-.603-.137-1.252-.13-1.878-.13-.419.013-.784.246-.764.709.014.419.374.57.766.619.386.053.78.08 1.15.174.434.11.873.228 1.278.421 1.136.548 1.416 1.314.807 2.423-.428.783-.974 1.508-1.503 2.228-.492.67-1.02 1.322-1.548 1.973-.268.338-.526.689-.344 1.134.208.513.695.522 1.144.532.57.017 1.14-.052 1.708-.003.718.053 1.44.121 2.13.284.938.223 1.27.672 1.173 1.632-.093.918-.241 1.851-.481 2.744-.525 1.91-1.112 3.792-1.704 5.679-.139.447-.17.835.201 1.144.352.295.728.17 1.086-.047.637-.389 1.266-.81 1.921-1.166.576-.309 1.173-.616 1.791-.814 1.652-.533 2.681-.093 3.54 1.408.646 1.127 1.055 2.344 1.31 3.61.185.913.312 1.835.46 2.749.077.484.158.984.74 1.109.552.111.887-.263 1.197-.646.128-.165.231-.348.339-.525.211-.36.448-.712.623-1.091 1.324-2.814 3.698-3.572 6.551-3.338.526.045 1.041.255 1.557.406.255.072.498.224.756.265.185.033.471.002.558-.119.098-.13.06-.411.018-.581-.099-.369-.431-.7-.747-.87-.627-.332-1.3-.637-1.988-.773-1.523-.306-3.044-.135-4.537.306-1.273.377-2.189 1.221-2.882 2.312-.443.718-.825 1.463-1.333 2.362Z" fill="#EACEFF"/></svg>