<svg width="256" height="63" fill="none" xmlns="http://www.w3.org/2000/svg"><path d="M217.666 27.134c-.088-.446-.178-.891-.222-1.381-.222-2.54-1.291-4.723-2.718-6.773-.802-1.114-1.871-1.96-2.985-2.762-1.203-.936-2.628-1.426-4.01-1.96-.268-.09.312-1.293 1.649-2.941.222-.267.222-.535.044-.802-.757-1.337-1.783-2.361-3.296-2.852-2.139-.712-3.966-.356-5.525 1.293-.624.668-1.159 1.38-1.693 2.094-.134.178-.224.445-.49.356-.268-.045-.178-.312-.178-.49a25.66 25.66 0 0 0-1.159-5.48c-.178-.58-.312-.669-.892-.669-.846-.044-1.559.268-2.183.802-.534.49-1.024 1.07-1.693 1.426-.446.267-.49.401-.134.847a15.051 15.051 0 0 1 1.605 2.718c.266.623.356 1.247.4 1.915 0 .178 0 .401-.222.58-.847-.446-1.783-.669-2.718-.758-1.024-.089-2.049-.045-3.029.223-1.069.312-1.917.891-2.718 1.604a6.171 6.171 0 0 0-1.782 2.718c-.223.668-.134.846.534 1.114.09.044.178.044.268.089.712.311 1.515.579 2.361.757a2.281 2.281 0 0 1-.534.58c-.714.667-1.427 1.336-2.051 2.093-1.201 1.47-2.049 3.075-2.539 4.901-.223.802-.312 1.649-.445 2.495-.312 2.05-.268 4.055.178 6.06.579 2.45 1.737 4.633 3.252 6.683 1.025 1.426 2.273 2.584 3.788 3.564 1.247.802 2.629 1.337 4.054 1.738 1.025.267 2.095.49 3.162.757.446.09.804.268.848.758.044.312.268.49.534.623.268.134.535.268.847.268 1.47.133 2.941.089 4.41-.357.58-.178 1.115-.267 1.693-.222.714.089 1.337-.134 1.917-.535.356-.223.534-.535.534-.936 0-.579.312-.846.802-1.069.757-.356 1.471-.713 2.094-1.248 1.604-1.336 3.253-2.584 4.456-4.321.846-1.203 1.649-2.406 2.227-3.743.758-1.737 1.293-3.564 1.693-5.435a14.105 14.105 0 0 0-.134-4.322ZM188.439 37.87c-.088.045-.134.09-.222.09-.134 0-.268-.045-.312-.09-.134-.044-.224-.133-.312-.178a4.103 4.103 0 0 1-1.159-1.426c-.757-1.336-1.247-2.851-1.515-4.5-.088-.757-.178-1.514.046-2.316.088-.49.356-.936.757-1.204.356-.267.624-.222.756-.133.134.044.358.223.358.668 0 .267.044.624 0 .98-.134 1.47.088 2.941.623 4.545.089.267.178.58.268.847.222.712.49 1.47.802 2.183.044.089.178.356-.09.534Zm1.471-15.015c-.179.312-.357.58-.535.758-.4.4-.802.846-1.114 1.337l-.09.133c-.266.357-.49.713-.801 1.025-.222.267-.446.312-.58.312h-.088c-.224-.045-.446-.267-.536-.58-.178-.49-.044-.935.09-1.336.222-.802.936-1.871 1.515-2.361.446-.401.936-.58 1.515-.535.312.044.578.178.712.4.09.224.046.536-.088.848Z" fill="#222227"/><path d="M254.204 40.946c-.802-.713-1.649-1.47-2.407-2.228-2.227-2.228-4.277-4.634-6.415-6.906-1.693-1.827-3.208-3.832-4.901-5.703-.178-.178-.312-.446-.446-.624-.312-.356-.268-.713-.044-1.114.712-1.247 1.381-2.495 2.139-3.698 3.118-5.034 6.147-10.069 9.355-15.059.446-.668.446-.802-.177-1.248-1.827-1.38-3.743-2.584-5.837-3.564-.58-.267-1.158-.535-1.782-.668-.357-.09-.623 0-.847.223-.134.178-.268.4-.4.579-.536.935-1.025 1.871-1.561 2.807-1.692 2.762-3.385 5.48-5.078 8.198l-.935 1.604c-.58 1.024-1.16 2.005-1.783 3.03-.222.4-.312.4-.624.044-.58-.624-1.069-1.292-1.559-1.96-1.917-2.585-3.654-5.213-5.615-7.753-.4-.535-.49-.58-1.158-.312-1.693.624-3.208 1.604-4.589 2.718-.668.535-1.382 1.07-1.96 1.782-.623.758-.491 1.025-.089 1.649 1.559 2.584 3.564 4.9 5.257 7.396 1.337 1.916 2.718 3.742 4.054 5.614.134.178.268.356.268.579 0 .223-.178.4-.268.579-1.336 2.317-2.762 4.634-4.01 6.995-1.247 2.361-2.583 4.678-3.876 6.995-1.336 2.361-2.629 4.678-3.964 6.995-1.337 2.317-2.719 4.59-3.922 6.95-.356.714-.356.758.178 1.382 1.203 1.336 2.54 2.584 4.056 3.609 1.201.846 2.405 1.648 3.696 2.272.714.312.981.223 1.337-.446 1.649-3.207 3.387-6.37 5.08-9.579.979-1.871 1.961-3.742 2.896-5.658l2.273-4.545c.935-1.871 1.871-3.698 2.895-5.48.401-.668.401-.668.891-.089l.044.045a450.03 450.03 0 0 0 7.308 8.732c1.024 1.203 2.049 2.362 3.207 3.475.624.58.847.58 1.561.179a33.678 33.678 0 0 0 2.049-1.382c1.781-1.336 3.564-2.673 5.167-4.277.268-.267.49-.534.67-.846.4-.624.4-.802-.134-1.292Zm-32.747-26.733c-.09.045-.178.045-.268.045a.55.55 0 0 1-.446-.223l-.222-.312c-.402-.49-.803-1.025-1.115-1.604a.638.638 0 0 1 .179-.802c.267-.223.578-.178.802.089.49.535.892 1.203 1.292 1.782l.089.09c.044.088.044.178.089.222v.09c-.045.356-.178.534-.4.623Zm7.796 9.58c-.088.222-.312.311-.534.311-.312 0-.49-.223-.624-.356-.935-1.114-1.739-2.184-2.718-3.52-1.07-1.47-1.915-2.673-2.585-3.832-.134-.178-.4-.624.09-.936.312-.222.624-.133.891.223.578.669 1.07 1.381 1.56 2.094.266.401.579.802.845 1.203.624.847 1.204 1.649 1.827 2.495.402.58.802 1.114 1.248 1.693.044.134.134.357 0 .624ZM178.772 35.91c-1.247-3.654-3.43-6.505-6.994-8.153-.536-.268-.536-.357-.09-.713 1.917-1.426 2.986-3.431 3.744-5.614.534-1.604.846-3.253.578-4.946-.534-3.386-2.139-6.06-5.079-7.886-2.317-1.47-4.856-2.361-7.529-2.94-1.471-.312-2.94-.446-4.456-.58-1.604-.133-3.252 0-4.856.179-.891.089-1.471.49-1.693 1.425-.312 1.292-.58 2.584-.936 3.877-.847 3.252-1.381 6.549-1.782 9.89-.134 1.114-.178 2.273-.268 3.431-.044.58-.044.58-.579.669-.935.133-1.827.222-2.762.311-.758.09-.847.223-1.025.98-.089.49-.757 4.278-.312 7.709.089.802.268.89 1.114.802a40.11 40.11 0 0 0 2.272-.357c.49-.089.49-.044.446.401-.446 3.698-.713 7.44-.802 10.916v4.812c0 .713.312 1.292.936 1.648.668.446 1.381.847 2.138 1.114 1.961.668 3.921 1.203 5.971 1.292 2.538.134 5.079.09 7.618-.222 2.495-.312 4.857-.98 7.084-2.095 1.471-.757 2.852-1.693 3.966-2.985 1.915-2.272 3.118-4.811 3.564-7.752.268-1.738.312-3.52-.268-5.213Zm-31.276-6.728c0 .357-.223.58-.535.624h-.134c-.312 0-.534-.178-.623-.49-.045-.268-.045-.535-.045-.713v-.267c0-.535 0-.936.089-1.337.134-.58.49-.624.713-.624.178 0 .579.134.579.758 0 .668 0 1.336-.044 2.05Zm6.727-16.44c-.401 2.094-.757 4.366-1.114 6.905-.089.535-.133 1.025-.222 1.56-.045.49-.134.936-.179 1.426-.044.267-.089.623-.534.757h-.178a.507.507 0 0 1-.357-.133c-.133-.09-.267-.312-.267-.758l.044-.624c.223-2.45.446-4.99.936-7.44.134-.624.267-1.337.579-2.05.178-.4.446-.534.758-.445.267.044.623.223.534.802Zm1.159-4.946a25.299 25.299 0 0 1-.579 2.317c-.09.312-.312.445-.58.445h-.133c-.268-.044-.535-.222-.49-.801l.044-.312c.089-.624.223-1.292.49-1.96.134-.357.446-.49.758-.402.401.09.579.357.49.713Zm4.01 8.911c.088-.847.222-1.693.4-2.54.134-.757.268-.846.981-.802 1.292.134 2.583.312 3.831.802 2.272.892 3.476 2.986 3.164 5.392-.268 2.316-1.559 3.787-3.654 4.589-1.47.579-3.029.802-4.634.802-.712 0-.712-.045-.757-.713v-.847c.179-2.227.357-4.455.669-6.683Zm8.644 25.619a9.787 9.787 0 0 1-5.124 2.629c-1.515.311-3.074.356-4.633.267-.625-.045-.714-.134-.714-.802 0-1.47.178-7.975.312-9.758.088-1.024.044-1.024 1.113-1.202 2.139-.312 4.278-.401 6.371.178 1.471.4 2.719 1.158 3.476 2.54 1.07 1.87.758 4.588-.801 6.148ZM61.817 52.708c-1.782-2.005-3.297-4.188-4.856-6.371-2.718-3.832-4.856-7.976-7.04-12.075-.222-.4-.356-.846-.534-1.247-.178-.49-.134-.49.312-.668.4-.179.846-.268 1.247-.49 2.94-1.515 6.282-4.278 6.594-9.134.134-2.005-.178-4.01-1.025-5.881-.311-.669-.579-1.381-1.069-1.916-.624-.713-1.247-1.47-1.871-2.183a8.436 8.436 0 0 0-2.674-2.005c-2.45-1.292-5.123-1.782-7.841-1.827-2.629 0-5.347-.045-8.109.134-1.381.089-2.762.267-4.099.534-.713.134-.891.312-.891 1.07 0 1.203.045 2.361.09 3.564.044.713.133 1.47.266 2.183.09.58.223.668.802.668.49 0 .98 0 1.515.045.802.045.802.045.802.891 0 .09-.178 3.475-.222 5.124-.045.98-.49 6.505-.49 8.287 0 2.584-.179 5.124-.179 7.708 0 1.025-.312 6.683-.223 8.51.045 1.114.045 2.228.223 3.341.09.58.178.669.758.758 1.114.178 2.272.133 3.43.222.936.045 1.916 0 2.852-.044.579-.044.757-.223.757-.802v-.446c0-1.782-.044-3.564.045-5.346.089-2.94.312-5.881.4-8.866 0-.223 0-.669.134-.713.134-.045.357.49.49.757.669 1.381 1.426 2.763 2.184 4.1 1.87 3.163 3.876 6.192 5.836 9.311 1.248 1.916 2.629 3.743 4.055 5.525.623.802 1.247 1.56 2.005 2.228.445.4.579.267 1.113 0 1.07-.58 3.743-2.406 5.035-3.52.713-.624.758-.758.178-1.426Zm-28.96-38.762c0 .356-.223.623-.58.668h-.088c-.312 0-.535-.223-.624-.535-.134-.713-.267-1.47-.134-2.227v-.134c0-.09 0-.134.045-.223.089-.4.356-.624.757-.58.401.046.624.357.58.758-.045.446 0 .936 0 1.382v.4c.044.179.044.357.044.49Zm2.762 20.272v.713h-.089v.223c0 .356 0 .712-.044 1.069 0 .535-.312.668-.535.668h-.045c-.356 0-.579-.223-.579-.623a21.564 21.564 0 0 1 .045-2.897v-.089c0-.089 0-.178.044-.267.045-.401.312-.624.624-.58.401 0 .624.268.624.67 0 .356 0 .712-.045 1.113Zm.49-9.713a97.91 97.91 0 0 1-.222 3.609c-.045.757-.09 1.56-.134 2.317 0 .223-.045.713-.58.757h-.044c-.579 0-.624-.534-.624-.757-.133-1.47-.044-2.896.09-4.277 0-.268.044-.58.044-.847v-.401l.045-.312c.134-1.693.222-3.43.445-5.124.045-.445.134-.89.223-1.292.09-.4.356-.623.713-.579.178 0 .58.134.535.758-.268 2.005-.401 4.099-.49 6.148Zm11.718.134c-.846.579-1.782.757-2.762.89-.356.045-.758.045-1.158.09-.58.044-1.159 0-1.694-.134-.534-.089-.623-.178-.623-.757.089-1.292.267-2.584.49-3.877.178-1.158.4-2.36.623-3.52.134-.668.134-.623.758-.623 1.158.045 2.272.356 3.297.847 1.737.757 2.673 1.87 2.718 4.143.044 1.292-.624 2.228-1.649 2.94Zm73.248 19.07c-.089-.892-.178-1.739-.49-2.585-.179-.49-.535-.802-1.07-.802-1.158-.045-2.316-.134-3.519-.134-2.451 0-4.857.178-7.263.535-2.361.356-4.722.668-6.995 1.337-.133.044-.356.133-.401 0-.044-.134.223-.446.357-.669 2.272-3.475 4.856-6.727 7.44-9.98 2.005-2.584 4.144-5.124 6.416-7.485.223-.223.446-.49.446-.847.089-2.851-.223-5.703-.491-8.554-.044-.535-.222-.668-.801-.668-.223 0-.491 0-.713-.045-4.946-.045-18.49.178-20.273.356-1.559.179-3.074.312-4.633.49-.624.09-.802.268-.802.892-.045.4-.045.802-.045 1.203.045 1.87.045 3.742.535 5.613.178.713.356.847 1.025.758.757-.09 1.514-.134 2.272-.267 2.005-.268 4.01-.49 6.015-.624l5.614-.401c.668-.045 2.004-.223 2.094-.045.089.134-.312.58-.491.802-.98 1.248-2.004 2.406-2.895 3.698-2.05 2.896-4.01 5.792-6.06 8.644-2.005 2.718-3.787 5.614-5.881 8.242-.223.268-.446.58-.624.892-.134.222-.178.445-.044.757a438.313 438.313 0 0 1 2.495 6.995c.089.312.222.58.311.846.09.312.312.402.624.312l.535-.133c1.025-.268 2.005-.535 3.03-.802 3.831-.936 7.752-1.604 11.628-2.273 3.743-.623 7.53-1.024 11.362-1.024 1.247 0 1.381-.09 1.425-1.382.09-1.158-.044-2.405-.133-3.653ZM91.179 18.89c0 .357-.223.624-.58.669h-.089c-.312 0-.534-.223-.623-.535-.134-.713-.268-1.47-.134-2.228v-.134c0-.089 0-.133.045-.222.089-.401.356-.624.757-.58.401.045.624.357.58.758-.045.445 0 .936 0 1.381v.401c.044.178.044.357.044.49Zm14.658 5.57.134-.223c.312-.58.668-1.159 1.158-1.649a.682.682 0 0 1 .802-.133c.223.133.357.311.357.623 0 .268-.134.446-.268.58-.044.044-.089.089-.133.178a15.6 15.6 0 0 1-.758 1.069l-.089.134c-.089.133-.267.356-.624.356h-.089c-.223 0-.401-.134-.534-.356-.09-.134-.09-.357.044-.58Zm-6.148 11.138c-.268.401-.49.758-.758 1.159-.089.178-.267.4-.579.4h-.045a.581.581 0 0 1-.534-.311.684.684 0 0 1 0-.713l.4-.624c.357-.535.67-1.07.981-1.604.891-1.515 1.96-3.03 3.163-4.678l.357-.49c.49-.669 1.025-1.381 1.604-2.005.267-.268.535-.357.802-.223.267.09.356.312.401.624v.089c-.045.267-.223.49-.357.668l-.133.134c-.491.668-.936 1.337-1.426 2.005-.757 1.07-1.515 2.094-2.272 3.163L99.689 35.6Z" fill="#222227"/><path d="M87.7 33.46c-.09-.445-.179-.89-.313-1.336-.4-1.47-.757-2.94-1.247-4.366-.223-.713-.49-.847-1.203-.669-.668.134-1.292.312-1.96.446-1.292.312-1.248.668-1.649-.98-.713-2.896-2.807-12.253-3.297-14.97-.089-.625-.356-.714-.668-.803a38.515 38.515 0 0 0-3.698-.713c-1.56-.267-3.164-.49-4.545-.668-1.025-.044-1.203.09-1.56.802-1.514 3.208-2.45 6.594-3.564 9.936-1.158 3.564-2.405 7.128-3.386 10.737a237.603 237.603 0 0 0-2.54 10.827c-.267 1.203-.222 1.337.892 1.827a40.144 40.144 0 0 0 6.371 2.272c.713.178.758.134.98-.535.446-1.47.713-2.94 1.07-4.455.356-1.649.356-1.649 1.96-2.183 1.604-.535 3.163-.98 4.767-1.47.669-.223.669-.179.891.49.401 1.514.802 3.074 1.292 4.589.49 1.693 1.07 3.43 1.515 5.123.178.669.312 1.337.535 2.005.223.758.312.802 1.07.624 2.138-.445 4.232-1.07 6.326-1.782.312-.09.58-.223.846-.401.535-.356.58-.49.446-1.114-.4-1.648-.98-3.252-1.47-4.856-.49-1.738-.891-3.52-1.426-5.258-.134-.4-.223-.846-.356-1.247-.09-.223 0-.357.222-.401.134 0 .223-.045.357-.045.891-.178 1.826-.312 2.718-.49.623 0 .757-.223.624-.935ZM68.495 16.575l-.445 1.248c-.401 1.114-.802 2.317-1.203 3.43-.223.758-.49 1.47-.713 2.228a13.12 13.12 0 0 0-.356 1.248c-.401 1.247-.758 2.495-1.159 3.742l-.267.802c-.134.446-.446.535-.624.535h-.178c-.357-.089-.535-.356-.535-.713v-.044c.178-.936.446-1.827.713-2.63.223-.712.446-1.47.668-2.182.401-1.248.802-2.584 1.203-3.832.446-1.337.98-2.673 1.694-4.277.267-.535.668-.446.802-.401.4.089.534.445.4.846Zm.268-2.361c-.09 0-.178 0-.267-.045-.357-.133-.535-.445-.401-.846l.044-.134c.178-.623.356-1.247.668-1.827.179-.356.49-.49.802-.4.312.089.49.356.49.712v.09l-.044.133c-.045.09-.09.223-.134.357l-.089.222c-.178.446-.312.847-.49 1.292-.09.268-.312.446-.58.446Zm3.965 16.53a85.091 85.091 0 0 0-3.208.846c-.222.045-.312.09-.222-.534.534-2.896 1.692-7.931 1.737-8.065.045-.133.134-.267.312-.223.134 0 .178.134.178.268.267.802.446 1.648.668 2.495.357 1.47.713 2.94 1.025 4.455.134.58.09.624-.49.758Zm73.693-19.649c-1.515-1.336-3.163-2.406-4.99-3.297-.178-.089-.356-.134-.535-.223-.757-.222-1.024-.133-1.381.58-.668 1.203-1.247 2.45-1.916 3.698-1.514 2.806-3.208 5.524-4.945 8.153-.357.535-.579.58-.936 0-2.005-3.074-4.054-6.104-5.925-9.267-1.649-2.852-3.298-5.703-4.768-8.644-.312-.624-.445-.668-1.069-.4-1.96.846-3.921 1.781-5.703 2.94-.401.267-.758.49-1.114.802-.401.312-.446.534-.223.98.178.4.401.757.624 1.114 1.292 2.228 2.629 4.41 3.965 6.638 2.273 3.877 4.545 7.708 7.174 11.317 1.292 1.782 2.628 3.565 3.92 5.347.223.267.312.579.312.935-.089 5.08.446 12.298.713 14.748.223 2.005.535 4.01 1.025 5.97.178.802.178.758.98.802 1.292.09 2.584-.133 3.832-.356 1.158-.178 2.361-.401 3.475-.847.98-.4 1.114-.623.891-1.648-.668-2.985-2.005-13.367-2.272-15.55a93.444 93.444 0 0 1-.446-6.104c0-.356.089-.668.312-.98 1.827-2.629 3.654-5.213 5.347-7.93 1.515-2.407 2.851-4.902 3.921-7.53.311-.624.311-.758-.268-1.248ZM118.353 9.98c-.089.09-.223.09-.312.09a.616.616 0 0 1-.49-.268 11.892 11.892 0 0 1-1.827-2.762c-.044-.09-.044-.134-.044-.178v-.09c.044-.4.267-.534.445-.579.268-.089.535.045.713.268.446.623.847 1.247 1.247 1.826.179.312.357.624.491.847.133.356.044.668-.223.846Zm7.307 11.584c-.134.179-.312.312-.579.312h-.089c-.312-.044-.535-.312-.669-.534a37.646 37.646 0 0 1-1.604-2.406l-.401-.624c-1.114-1.738-2.183-3.475-3.119-5.168-.089-.134-.133-.268-.222-.401-.09-.178-.179-.357-.312-.535-.312-.49-.089-.757.089-.936.445-.312.802.134.891.268.445.624.846 1.292 1.247 1.96.223.357.401.713.624 1.07 1.248 2.004 2.54 4.01 3.832 6.014.045.045.089.134.134.178l.089.134c.223.223.223.446.089.668ZM29.6 36.09a19.952 19.952 0 0 0-2.762-.89c-1.337-.357-2.718-.446-4.099-.446-.535 0-.891.133-1.158.668-.268.535-.535 1.07-.891 1.56-.758 1.113-1.694 2.004-2.986 2.45-2.628.935-5.302-.669-6.237-2.718a12.93 12.93 0 0 1-1.025-3.386c-.356-2.272-.267-4.456.49-6.639.98-2.628 2.94-4.01 5.658-4.41.936-.134 1.872 0 2.718.356 1.159.445 1.872 1.336 2.495 2.361.401.713.401.713 1.114.446 2.094-.802 4.01-1.96 5.881-3.208.446-.312.446-.312.223-.802-.356-.802-.846-1.56-1.292-2.317-2.317-4.233-6.06-6.06-10.738-6.193-1.425-.045-2.851.267-4.232.668-1.47.446-2.896 1.025-4.1 1.96-2.093 1.65-3.786 3.61-4.856 6.06-1.336 3.074-1.87 6.327-1.782 9.668.045 6.55 1.871 10.604 3.654 13.01 1.782 2.362 3.92 4.277 6.861 5.124 1.693.49 3.43.757 5.168.49 1.916-.312 3.698-.936 5.302-2.005 1.738-1.158 3.208-2.54 4.278-4.322.98-1.648 1.737-3.43 2.45-5.213.178-.4.267-.846.401-1.291.134-.624.045-.758-.535-.98ZM8.838 19.337c-.936 1.203-1.56 2.584-2.139 3.92a17.882 17.882 0 0 0-1.38 7.263c0 .312 0 .535.044.757.044.535-.268.669-.446.713h-.133a.839.839 0 0 1-.357-.089.548.548 0 0 1-.223-.445c-.044-.179-.044-.357-.089-.535a6.802 6.802 0 0 1-.133-1.337v-.267c0-1.158.222-2.272.4-3.163.446-2.14 1.293-4.278 2.674-6.505.223-.401.535-.758.891-1.114.267-.268.624-.312.936-.045.178.223.222.535-.045.847Zm.713-1.56a.572.572 0 0 1-.09-.802c.803-.98 1.694-1.559 2.719-1.826a.73.73 0 0 1 .534.089.716.716 0 0 1 .223.49.53.53 0 0 1-.445.534c-.713.223-1.248.669-1.694 1.114a2.358 2.358 0 0 1-.49.401c-.133.09-.222.134-.356.134-.134.045-.267-.045-.401-.134Z" fill="#222227"/></svg>