<svg width="88" height="43" fill="none" xmlns="http://www.w3.org/2000/svg"><path d="M.616 10.31c3.26 5.882 8.749 10.673 14.136 14.583 4.602 3.346 9.769 4.924 15.454 4.618 10.115-.55 23.795-4.673 28.27-14.913C62.664 5.018 48.19-2.804 40.652 2.512c-3.51 2.482-2.293 8.215-1.123 11.591 2.261 6.526 7.696 11.254 12.934 15.431C58.39 34.262 64.972 38 72.322 40.01c2.725.746 4.813.903 7.562.801 1.594-.055 6.063-.62 6.832 1.28.18.448 1.107-.518.927-.95-.888-2.175-5.34-1.555-7.123-1.492-4.397.157-8.238-.801-12.384-2.41-5.27-2.058-10.036-4.98-14.465-8.482-4.578-3.628-9.282-7.555-12.023-12.832a20.133 20.133 0 0 1-2.222-7.868c-.102-1.469.063-1.461.88-3.079.965-1.924.792-1.94 2.732-2.434 1.28-.33 2.63-.487 3.95-.393 4.563.33 10.9 3.62 11.324 8.71.48 5.747-5.764 10.444-10.209 12.901-5.293 2.922-11.379 4.265-17.37 4.57-5.749.3-10.924-1.373-15.534-4.82-5.183-3.88-10.483-8.443-13.656-14.16-.251-.44-1.146.558-.927.958Z" fill="#272525"/></svg>