<svg width="432" height="422" fill="none" xmlns="http://www.w3.org/2000/svg"><path d="M190.661 348.126c.744-10.711-2.667-19.92-12.387-25.097-11.083-5.907-23.671-8.278-34.662-14.386-10.696-5.937-19.548-16.308-27.067-25.827a158.09 158.09 0 0 1-18.99-30.74c-10.03-21.408-17.393-47.405-15.067-71.201 2.604-26.679 16.773-50.908 34.135-70.735 36.306-41.437 103.724-57.048 153.656-32.275 12.06 5.983 22.772 13.905 33.19 22.369 4.278 3.472 8.464 7.115 12.045 11.316 2.434 2.868 4.17 5.876 6.138 9.069 1.938 3.131 4.434 5.767 6.341 8.991 7.72 12.991 10.479 26.71 12.572 41.515a312.203 312.203 0 0 1 2.31 22.136c.542 7.829 1.534 16.262.604 24.059-1.565 13.115-8.123 27.067-14.045 38.709-5.906 11.595-13.068 22.555-21.268 32.647-8.774 10.805-18.758 20.602-29.609 29.315-9.751 7.828-20.106 12.603-18.277 26.958.14 1.162 3.643.372 3.473-.931-1.132-8.913 2.681-14.308 9.642-19.377a212.548 212.548 0 0 0 14.51-11.565c9.192-8.03 17.672-16.881 25.221-26.462 14.619-18.555 25.687-39.855 32.198-62.566 4.015-13.982 1.457-30.229-.108-44.537-1.659-15.145-3.457-31.05-10.464-44.77-3.132-6.123-7.023-11.239-10.65-16.959-3.364-5.302-7.085-9.89-11.751-14.122-9.533-8.666-20.106-16.65-31.236-23.13-44.103-25.702-103.492-19.687-144.882 9.023-21.145 14.665-38.29 36.616-48.63 60.101-10.975 24.881-10.402 50.165-3.441 76.038 7.007 26.058 20.307 50.164 38.941 69.712 4.65 4.883 9.518 9.859 15.269 13.44 6.263 3.907 13.208 6.372 20.122 8.836 6.65 2.372 13.673 4.651 19.656 8.496 7.565 4.852 9.643 13.951 9.069 22.4-.124 1.395 3.364.713 3.442-.45Z" fill="#272525"/><path d="M187.383 348.607c3.503 4.65 11.812 4.852 17.052 5.363 7.891.76 15.425 1.411 23.207-.341 8.417-1.891 16.974-2.402 25.376-4.356 3.845-.899 8.511-1.813 10.092-5.797.45-1.117-3.023-.714-3.472.434-1.488 3.767-9.984 4.092-13.332 4.914-5.565 1.379-11.409 1.286-17.037 2.589-7.115 1.643-13.393 1.426-20.555.837-5.255-.434-14.557-.279-18.122-4.992-.682-.946-4.046.248-3.209 1.349Z" fill="#272525"/><path d="M187.03 346.84c-4.092 4.976-2.31 16.06-1.721 21.873.729 7.193.853 17.285 4.667 23.672 3.766 6.278 11.006 8.634 17.687 10.34 8.077 2.061 16.99 4.154 25.362 3.767 6.913-.326 14.788-2.341 20.741-5.938 7.038-4.263 10.418-9.006 12.185-17.036 1.627-7.364 1.721-15.502 1.131-22.974-.403-5.194-.558-12.743-3.658-17.053-.651-.914-3.085-.031-3.348.9l-.14.511c.496-.356 1.008-.729 1.504-1.085-.093.031-.186.046-.279.077-2.078.543-1.628 2.279.465 1.737 1.054-.279 1.627-.62 1.937-1.675-1.116.295-2.232.605-3.348.9 2.48 3.457 2.914 9.967 3.255 14.075.512 6.387.202 12.588-.186 18.975-.465 7.596-2.418 14.99-8.805 19.656-7.611 5.566-18.183 7.844-27.485 6.666-6.371-.806-13.176-2.201-19.331-3.999-6.588-1.922-13.285-4.899-15.672-11.921-2.016-5.953-2.434-13.177-3.07-19.362-.604-5.798-2.775-16.975 1.364-22.013.946-1.194-2.526-.977-3.255-.093Z" fill="#272525"/><path d="M194.319 397.95c-1.24 3.581-.155 9.643.79 13.255.915 3.488 2.744 5.89 6.201 6.975 4.542 1.427 9.72 1.365 14.401 1.706 5.457.403 11.1.806 16.557.356 4.604-.387 9.068-1.86 13.595-2.728 3.038-.574 6.759-1.023 9.487-2.589 7.519-4.294 6.697-13.456 6.697-20.835 0-1.069-3.473-.418-3.473.93 0 8.558.652 17.642-9.843 19.998-6.821 1.535-14.014 3.411-20.974 3.333-6.899-.078-14.464-.016-21.223-1.519-5.224-1.163-7.487-3.302-8.262-8.557-.481-3.209-1.566-7.643-.496-10.759.418-1.178-3.054-.744-3.457.434Z" fill="#272525"/><path d="m210.381 408.693-.186-.139c-.993.511-2 1.007-2.992 1.519 2.201 1.193 4.542 1.86 7.038 1.534.697-.093 1.72-.434 1.968-1.178.062-.186.124-.372.186-.542.047-.171 0-.326-.124-.465-1.782-1.799-4.759-2.543-6.945-3.814-2.247-1.318-4.232-3.24-6.603-4.247-.915.558-1.845 1.116-2.76 1.674 3.163 1.24 6.124 3.565 9.658 2.775.574-.124 1.597-.605 1.504-1.333-.248-1.907-4.682-4.077-6-4.837-1.426-.822-2.945-1.69-4.588-.822-4.914 2.605 2.573 8.635 5.007 10.17.76.48 3.798-.341 2.992-1.52-1.969-2.914-5.023-5.177-7.953-7.068-.759-.497-2.17.061-2.775.558-3.503 2.836 4.14 12.045 7.333 12.541.604.093 3.24-.295 2.806-1.411-1.349-3.457-3.457-7.379-7.255-8.449-.946-.263-2.387.249-2.806 1.163-2.294 5.038 5.1 11.565 9.89 11.704 4.511.124 3.845-3.038 1.674-5.689-2.356-2.883-5.859-4.015-7.875-.078-1.782 3.473.481 5.643 3.922 4.418.527-.186 1.055-.589 1.055-1.178-.016-2.015-3.132-3.441-4.294-5.069-1.706-2.449-1.845-5.534-3.426-7.828-.589-.853-3.814.108-3.349 1.147 2.232 4.914 15.456 22.679 20.804 11.425 3.922-8.263-11.255-6.775-15.084-3.922-.573.418-.372 1.131.326 1.224 3.131.419 6.185 1.225 9.317 1.644 2.837.372 5.658.186 8.464.93l1.736-1.923c-4.496-.387-9.999-4.015-13.874-6.247-.775-.449-3.783.295-2.992 1.519 1.597 2.481 6.294 3.318 8.882 3.643 2.14.264 7.581-.651 9.069.62.465-.511.915-1.038 1.38-1.55-2.682.636-12.898-3.302-15.502-5.41-.76.558-1.519 1.116-2.295 1.659 3.194-.14 6.635 1.1 9.767 1.689 2.201.419 5.394.279 7.379 1.396.387-.574.759-1.132 1.147-1.706-4.542 1.194-10.34-2.356-14.82-2.961-.667-.093-4.046 1.148-2.449 1.783 6.402 2.574 13.951 1.07 20.292 3.473.62.124 1.24.248 1.844.372 1.07 1.565.822 2.263-.728 2.108-1.209.946-5.007.713-6.402.837-4.667.372-9.038-.108-13.689-.527-.449.651-.899 1.318-1.348 1.969 6.681.527 13.688.341 20.292 1.1l.837-1.813c-7.41 2.325-15.549-.124-23.083.589-.589.062-2.542.728-1.844 1.643 1.674 2.232 6.479 1.922 8.929 2 3.1.108 6.232-.093 9.317-.279 1.131-.062 4.356-.93 5.441-.419.232-.511.465-1.038.697-1.55-4.991 1.891-11.192 1.349-15.796 4.279-1.287.821-.31 1.565.837 1.472 6.914-.573 13.394-4.309 19.889-6.495 3.364-1.132 9.363-1.721 11.58-4.697.511-.682-.45-.977-.946-1.023-8.479-.667-17.052 2.852-25.469 3.565v1.829c9.719-2.356 19.703-3.705 29.438-6.014 2.108-.496 1.628-2.217-.465-1.737-5.379 1.21-10.635 2.047-16.091 2.744-1.613.202-9.364 2.077-10.511 1.039-.465.511-.914 1.038-1.379 1.55 6.727-1.426 13.998-1.163 20.788-.605 1.333.109 3.689-1.782 1.349-1.968-7.395-.605-15.301-.713-22.618.837-.372.077-2.108.883-1.38 1.55 1.985 1.829 8.154.155 10.433-.124 6.713-.806 13.254-1.798 19.858-3.286-.155-.574-.31-1.163-.465-1.737-9.735 2.31-19.703 3.659-29.438 6.015-1.612.388-2.077 2 0 1.829 8.108-.682 16.448-4.154 24.586-3.503-.31-.341-.62-.682-.945-1.023.341-.45.961 0 .17-.124-.558-.093-1.721.589-2.217.775-2.93 1.038-5.875 2.031-8.82 3.069-5.457 1.938-11.053 5.131-16.898 5.627.279.497.558.993.837 1.473 4.202-2.666 10.325-2.108 15.006-3.891.497-.186 1.675-1.1.698-1.55-1.643-.76-3.426-.155-5.147.015-3.364.342-15.657 2.248-18.09-.992-.621.543-1.241 1.101-1.845 1.644 7.89-.76 16.261 1.658 24.028-.776.635-.201 2.511-1.612.837-1.813-6.883-.806-14.107-.636-21.067-1.194-1.333-.108-3.69 1.767-1.349 1.969 7.162.635 13.812.883 20.959-.357 2.806-.48 6.03-.821 7.224-3.751a.48.48 0 0 0-.124-.465c-1.861-2.357-6.651-2.248-9.332-2.636-5.163-.744-11.053-.728-15.937-2.697-.821.589-1.627 1.194-2.449 1.783 5.767.79 11.518 4.356 17.424 2.821.59-.155 2.279-1.07 1.148-1.705-2.248-1.287-5.519-1.132-8.015-1.597-3.472-.651-6.991-1.938-10.541-1.767-.419.015-3.318.822-2.295 1.659 2.806 2.263 7.255 3.395 10.573 4.805 3.054 1.302 5.379 1.752 8.619.992.341-.077 2.139-.899 1.38-1.55-4.465-3.782-14.061 1.829-17.967-4.247-.992.511-2 1.007-2.992 1.519 4.635 2.666 9.844 6.077 15.285 6.542.914.077 3.674-1.411 1.736-1.923-3.767-1.007-7.72-.806-11.564-1.472-1.659-.279-3.147-.837-4.636-.372-1.86.573 1.628.186 1.799.217 1.534.248 5.518.093 6.464 1.969-1.333 2.774-2.713 3.379-4.139 1.813a9.314 9.314 0 0 1-1.798-1.519c-3.132-2.914-6.837-7.069-8.604-10.975-1.116.387-2.232.759-3.348 1.147 1.209 1.767 1.457 4.511 2.588 6.464.946 1.643 4.853 4.325 4.868 6.015.357-.388.698-.791 1.054-1.178 2.372-.837-.899-3.767 2.093-1.566.93.682 1.969 2.279 1.473 3.441.651-.387 1.317-.79 1.968-1.178-3.937.496-10.107-6.123-8.309-10.06-.93.387-1.86.775-2.805 1.162 2.976.837 4.914 4.945 5.906 7.488.93-.465 1.86-.946 2.806-1.411-1.907-.295-8.542-8.588-6.682-10.092-.93.186-1.844.372-2.775.558 2.698 1.736 5.69 4.077 7.488 6.744.992-.512 2-1.008 2.992-1.52-1.132-.713-6.418-5.487-5.379-5.72.372-.077 4.712 3.69 4.728 3.814.496-.45 1.007-.884 1.503-1.334-1.488.341-4.991-2.154-6.417-2.712-1.008-.388-4.232 1.054-2.76 1.674 1.535.651 12.774 7.813 12.774 7.828.651-.387 1.318-.79 1.969-1.178-1.706.093-3.287-.341-4.759-1.286-.791-.434-4.015.744-2.992 1.519l.186.139c1.054.682 4.247-.682 3.302-1.426Z" fill="#272525"/><path d="M242.087 412.041a71.036 71.036 0 0 1-12.325 2.402c-2.263.233-4.557.031-6.727.698-.667.202-2.496 1.566-.838 1.814 8.775 1.302 19.176-.14 27.827-1.752.666-.124 3.208-1.504 1.302-1.907-4.062-.852-8.914-.79-13.037-.697-2.636.062-5.023.124-7.1 1.86-.155.124-.45.496-.341.744 3.131 6.883 25.361 1.535 22.694-3.255-1.612-2.899-11.92-1.675-13.889-1.473-4.821.496-13.208 1.798-16.463 5.984-.372.48.093.899.558.976 5.58 1.054 11.378-1.565 16.509-3.503 4.325-1.643 11.069-3.302 14.231-7.023.388-.449-.108-.914-.558-.976-5.364-.837-11.208 1.069-16.541 1.845-3.286.48-7.58-.031-10.51 1.767-1.302.79-.31 1.596.837 1.472 5.317-.558 10.743-1.472 16.029-2.418 1.938-.341 5.255-.682 6.232-2.728.171-.341.186-.713-.232-.884-6.372-2.558-14.681-.062-21.238.264-.155.62-.295 1.24-.45 1.86 7.116-1.674 14.433-2.511 21.703-3.085-.279-.496-.558-.992-.837-1.473-4.294 2.899-12.247 3.643-14.929 8.557-.511.931.76 1.07 1.38.993 4.387-.45 8.588-2.605 12.34-4.822 1.628-.976 5.999-2.867 6.139-5.162.062-.976-1.396-.775-1.969-.651-5.271 1.178-9.472 5.426-14.681 6.666.31.527.621 1.054.915 1.581 5.441-2.697 15.254-3.999 19.114-9.177.341-.465-.078-.914-.558-.976-2.294-.326-4.186.914-5.24 2.976-.48.945.744 1.039 1.38.992 2.604-.155 3.937-2.015 5.054-4.232.775-1.566-2.636-.884-3.24-.078-2.326 3.147-3.814 6.821-6.108 10.015 1.085.031 2.155.046 3.24.077 1.193-2.31 4.371-8.371 6.79-9.58-.806-.078-1.613-.171-2.419-.248.837 4.651-3.937 9.58-6.681 12.898l3.348-.186c.869-3.287 3.442-9.379 6.418-11.456-.899.062-1.798.108-2.697.17 1.659 2.589-1.457 9.456-3.023 11.534 1.085.031 2.155.046 3.24.077a68.026 68.026 0 0 0 1.473-3.007c.635-1.318-1.675-1.023-2.31-.744-4.899 2.123-9.363 5.348-14.665 6.464.651.14 1.318.264 1.969.403-.915-2.201 14.913-9.58 15.192-9.689-.698-.325-1.38-.666-2.078-.992-2.061 1.86-4.604 3.349-7.007 4.744-1.534 1.519-3.286 2.077-5.27 1.659a14.873 14.873 0 0 1 4.449-3.488c2.062-1.194-1.054-1.613-2.155-1.024-3.085 1.613-6.712 3.163-10.076 4.031-3.395.884-5.395 1.147-1.318.449 5.844-1.007 11.425-3.379 17.378-3.813v-1.829c-6.294 1.519-12.34 3.224-18.835 3.875-2.248.233-7.519 1.008-2.992-.496 1.519-.511 3.116-.852 4.682-1.224 5.301-1.225 10.712-1.907 16.029-3.116-.434-.465-.868-.93-1.318-1.38-3.565 1.907-7.363 2.434-11.285 2.992-2.636.372-7.457 1.767-9.953.465-.232.511-.465 1.039-.697 1.55 3.317-1.302 7.596-.837 11.115-1.333 4.154-.589 8.278-1.535 12.51-1.24-.31-.341-.62-.682-.946-1.023-2.418 4.573-13.642 7.115-18.122 8.479-1.984.605-4.015.884-5.425 2.512-.403.449.108.914.558.976 5.782.946 11.254-1.007 16.959-1.736-.155-.558-.295-1.116-.45-1.674-6.154 2.356-13.688 2.899-20.214 2.868-.853 0-3.721 1.658-1.737 1.922 4.078.573 8.201.635 12.278.062-.279-.496-.558-.977-.837-1.473-1.752.899-6.263 1.256-8.232 1.24-.868 0-3.705 1.69-1.736 1.923 7.116.883 13.766-.341 20.323-3.194 3.721-1.612 11.658-4.852 12.495-9.472.279-1.581-2.914-.31-3.348.186-.28.311-.559.621-.822.931-.992 1.116 2.496.914 3.24.077.279-.31.558-.62.821-.93l-3.348.186c-.651 3.627-7.581 6.387-10.386 7.612-5.395 2.34-10.945 3.472-16.82 2.743l-1.736 1.923c3.798.031 8.324-.419 11.735-2.171 1.364-.697.263-1.627-.837-1.472-3.457.48-7.178.449-10.635-.031l-1.736 1.922c7.565.046 15.828-.682 22.927-3.411 1.535-.589 1.132-1.875-.449-1.674-3.519.45-6.991 1.302-10.495 1.86-6.154.977-2.573.512-1.271-.031 1.597-.666 3.302-1.085 4.93-1.658 4.743-1.675 13.037-3.535 15.626-8.387.372-.713-.326-.976-.946-1.023-4.868-.341-9.549.775-14.339 1.411-3.984.527-8.232.217-12.014 1.705-.527.217-1.644 1.054-.698 1.55 3.457 1.814 8.666.295 12.246-.217 4.899-.697 9.519-1.535 13.921-3.891 1.752-.93-.294-1.612-1.317-1.38-3.597.822-26.726 2.806-26.106 7.984.031.279.465.434.667.481 9.022 1.736 18.804-1.954 27.485-4.047 1.612-.387 2.062-1.984 0-1.829-5.488.403-10.945 2.155-16.277 3.488-2.651.651-6.263 1.147-7.937 3.55-.326.465.046.915.558.977 6.387.744 13.89-2.853 19.362-5.72-.713-.341-1.442-.683-2.155-1.024-2.031 1.179-9.1 5.55-5.085 7.658 1.814.962 6.682-1.829 8.061-2.542 3.395-1.767 6.945-3.844 9.798-6.418 1.426-1.302-1.411-1.24-2.078-.992-2.092.791-18.881 8.263-17.3 12.061.295.713 1.395.527 1.969.403 5.674-1.194 10.34-4.496 15.564-6.775-.775-.248-1.535-.496-2.31-.744a77.325 77.325 0 0 1-1.472 3.008c-.791 1.565 2.635.868 3.239.077 2.155-2.852 5.24-9.487 3.008-12.975-.45-.713-2.217-.171-2.698.17-3.891 2.713-6.541 8.418-7.735 12.914-.403 1.503 2.93.325 3.348-.186 3.07-3.705 7.86-8.713 6.93-13.906-.155-.868-2-.465-2.419-.248-3.813 1.907-6.789 7.302-8.65 10.929-.79 1.535 2.636.899 3.24.078 2.295-3.194 3.767-6.868 6.108-10.015-1.085-.031-2.155-.046-3.24-.077-.108.232-1.1 2.372-1.333 2.387.465.326.915.667 1.38.992 1.348-2.604-7.069 1.334-7.674 1.582-3.41 1.426-6.929 2.449-10.247 4.092-1.829.899-.728 1.984.915 1.581 5.224-1.255 9.441-5.503 14.68-6.666-.651-.217-1.317-.434-1.968-.651-.202 3.287-12.821 7.441-14.526 7.627.465.326.915.667 1.38.992 2.403-4.387 9.952-4.96 13.843-7.595 1.256-.853.326-1.566-.837-1.473-7.596.604-15.223 1.535-22.648 3.271-1.086.248-2.357 1.953-.45 1.86 2.976-.14 5.906-.574 8.867-.868 2.171-.202 5.162-.496 7.426-.248.992.108 2.775-.341 1.1.48-1.348.667-3.627.527-5.146.745-3.736.511-7.472 1.348-11.224 1.751.279.496.558.992.837 1.473 1.349-.822 6.418-.667 7.875-.884 3.287-.48 6.682-1.24 9.999-1.457 1.535-.108 2.868-.992 1.209.388-1.038.868-2.759 1.224-3.999 1.767-4.139 1.783-8.635 3.86-13.068 4.728-3.38.667-2.946.186-.062-.868a32.898 32.898 0 0 1 7.115-1.736c.682-.093 11.053-1.132 11.735.434.589 1.364-4.434 2.976-5.302 3.116a17.209 17.209 0 0 1-6.665.108c0-.542 0-1.07.015-1.612 2.046-.868 9.255.217 11.332.636l1.302-1.907c-8.138 1.519-17.967 3.007-26.183 1.798l-.837 1.814c2.589-.791 5.953-.481 8.635-.853 3.534-.48 6.976-1.271 10.402-2.248 2.123-.666 1.689-2.418-.403-1.813ZM184.406 358.063c2.791.527 5.69 3.209 8.511 4.015 3.612 1.039 7.518 1.457 11.239 1.814 7.828.744 15.796-.217 23.656.077 6.666.264 13.58 1.333 20.184.031 4.852-.961 12.045-.821 16.261-3.658 2.031-1.349-1.085-1.581-2.155-1.023-.294.155-.604.31-.899.465-2.062 1.069 1.008 1.612 2.155 1.023.295-.155.605-.31.899-.465-.713-.341-1.442-.682-2.155-1.023-1.736 1.162-4.48.883-6.433 1.193-3.705.605-7.301 1.783-11.068 2.062-6.511.465-13.131-.589-19.657-.604-7.193-.016-14.463.527-21.594-.342-3.55-.434-7.348-.821-10.635-2.309-2.402-1.085-3.581-2.651-6.169-3.132-1.117-.217-4.093 1.504-2.14 1.876ZM188.335 371.721c12.789 6.634 29.763 4.914 43.731 5.751 6.991.418 13.068-.357 19.935-1.302 4.527-.62 9.286-.419 13.472-2.481 1.441-.697 1.193-1.813-.45-1.674-.45.031-.899.078-1.349.109-.62.046-1.829.449-1.968 1.178-.031.139-.062.294-.093.434-.264 1.317 3.239.759 3.472-.434.031-.14.062-.295.093-.434-.651.387-1.318.79-1.969 1.178.45-.031.899-.078 1.349-.109-.155-.558-.295-1.116-.45-1.674-3.271 1.597-8.03 1.442-11.626 1.984-6.464.962-12.479 1.644-19.052 1.256-13.502-.791-29.981.946-42.305-5.457-1.039-.527-4.217.946-2.79 1.675ZM187.798 386.029c6.046 3.721 12.634 5.596 19.734 5.999 7.379.419 14.851.791 22.23 1.085 6.899.28 14.138.078 20.959-.961 4.325-.666 9.828-.682 13.533-3.178.698-.465.992-1.193-.015-1.457-.124-.031-.248-.062-.372-.108-1.101-.295-4.077 1.364-2.124 1.891.124.031.248.062.372.108 0-.48-.016-.976-.016-1.457-2.836 1.892-8.727 2.109-12.153 2.512-7.1.852-14.587 1.038-21.703.449-12.836-1.069-26.307.45-37.701-6.573-.945-.589-4.154.822-2.744 1.69ZM331.506 84.592c.326.263 18.277-14.975 19.998-16.417 2.17-1.829 4.247-3.767 6.355-5.658 1.07-.961 3.039-3.643 4.263-3.907 2.171-.465 1.799.652 3.054 2.713 1.132 1.86 2.372 3.581 3.612 5.364 1.023 1.457 4.341 5.193 3.767 6.883.233.14.481.295.713.434a25.54 25.54 0 0 0-3.906.574c-3.984.852-7.906 2.232-11.828 3.41-8.991 2.697-18.386 6.93-27.811 7.472-1.209.078-3.085 1.953-.914 1.953h1.55c1.302 0 3.689-1.968 1.349-1.968h-1.551c-.31.65-.604 1.302-.914 1.953 11.843-.698 23.687-6.154 34.988-9.503 3.116-.93 7.007-1.023 9.967-2.232.574-.233 1.241-.295 1.613-.884 1.674-2.542-2.434-7.472-3.814-9.44-1.72-2.48-4.108-9.147-7.069-10.03-2.666-.791-5.1 2.31-6.65 3.782-9.596 9.069-20.618 16.479-30.089 25.672-.217.216-.574.681-.218.96.094.078.187.156.295.233.961.775 4.186-.589 3.24-1.364ZM75.483 111.008c.062 1.132-.015.899.775 1.705.992-.511 2-1.007 2.992-1.519-4.511-2.899-9.27-5.178-13.704-8.34-3.767-2.697-7.518-5.457-11.363-8.03-3.798-2.542-7.844-4.76-11.843-6.992-1.752-.976-4.356-1.116-3.41-3.875.31-.915 3.782-2.666 4.541-3.193 4.109-2.915 8.992-6.186 13.782-7.829 3.054-1.038 3.317.403 5.084 3.085 1.504 2.279 2.729 4.821 3.876 7.302 4.201 9.115 6.232 18.943 10.433 28.058.542 1.163 3.58.341 3.472-.93-.015-.124-.015-.248-.03-.372-.094-1.132-3.582-.403-3.473.93.015.124.015.248.03.372 1.163-.31 2.31-.62 3.473-.93-2.806-6.092-4.48-12.386-6.697-18.68-2.31-6.573-5.348-12.541-8.712-18.618-1.364-2.465-2.046-4.154-5.13-3.55-2.559.496-5.38 2.76-7.659 3.922-2.806 1.426-5.596 2.868-8.247 4.558-2.372 1.519-8.62 4.2-8.93 7.27-.278 2.729 5.69 4.682 7.364 5.643 6.713 3.829 13.022 8.03 19.27 12.557 4.851 3.519 10.091 6.123 15.083 9.332.744.48 3.953-.543 2.992-1.519-.17-.419-.357-.853-.527-1.272-.031-1.131-3.52-.418-3.442.915ZM58.05 231.412c-14.82 5.054-30.151 3.504-45.328 6.418-2.542.496-9.595.651-11.3 3.116-1.008 1.457-.202 1.922.449 3.194 1.612 3.162 3.674 5.813 4.868 9.347 1.131 3.364 1.333 8.154 5.844 7.782 4.185-.341 9.069-4.836 12.34-7.162 6.293-4.48 12.975-8.293 19.33-12.665 3.318-2.294 6.666-4.34 10.418-5.875 1.86-.76 3.395-1.209 5.007-2.449 1.55-1.194-1.891-1.256-2.79-.574-3.085 2.356-8.061 3.488-11.456 5.627-4.573 2.884-9.27 5.72-13.72 8.759-4.278 2.93-8.495 6.077-12.913 8.774-2.31 1.411-5.053 3.813-7.456.791-1.395-1.752-1.922-6.248-2.806-8.387-.744-1.798-1.55-2.93-2.589-4.496-1.845-2.774-.837-2.278 2.062-2.929 6-1.349 11.983-2.202 18.106-2.651 11.193-.822 21.657-1.256 32.4-4.914 2.015-.652 1.612-2.403-.466-1.706ZM385.703 219.816h-3.286c-.45.651-.899 1.318-1.349 1.969 11.502-.171 22.958-1.085 34.414-2.078 2.884-.248 5.783-.48 8.651-.899 2.309-.341 3.239-1.364 3.488.76.17 1.442-1.132 4.589-1.566 6.015-.977 3.224-2.45 6.371-3.876 9.409-1.147 2.45-2.387 4.791-4.123 6.883-1.628 1.954-1.473 2.14-3.333.636-3.628-2.945-7.224-5.953-11.1-8.619-3.488-2.388-6.976-5.286-10.82-7.1-3.085-1.457-9.363-3.116-11.208-6.371-.806.48-1.612.961-2.418 1.457l1.705-.093c1.287-.062 3.674-2.093 1.349-1.969l-1.706.093c-.418.016-2.945.512-2.418 1.457 2.977 5.255 12.2 6.945 16.82 10.247 3.395 2.434 6.898 4.744 10.293 7.255 2.015 1.488 4.093 2.868 5.906 4.604.853.822 1.411 2.108 2.496 2.682 3.612 1.938 6.17-2.139 7.953-4.604 5.193-7.255 7.797-15.936 10.355-24.354.047-.17 0-.325-.124-.465-1.163-1.101-1.938-.946-3.503-.729-4.48.621-8.883 1.504-13.456 1.892-10.805.93-21.61 1.767-32.461 1.937-1.287.016-3.705 1.969-1.349 1.969h3.286c1.334-.015 3.721-1.984 1.38-1.984ZM82.642 333.058c.093-.093.202-.186.294-.295-.93-.186-1.86-.387-2.79-.573-8.2 8.231-15.827 17.672-22.385 27.252-1.302 1.907-4.278 4.589-2.31 6.697 1.504 1.612 5.442 1.411 7.457 1.597 4.263.403 8.573 1.922 12.805 2.124 1.643.077 2.914 0 3.953-1.566 1.007-1.519.76-4.837.899-6.557.248-2.899.294-5.814.511-8.713.248-3.24.527-6.495.9-9.719.34-3.008.093-6.496 1.503-9.147l-3.348.186c-.016.125-.016.249-.031.373-.109 1.395 3.38.728 3.472-.435.016-.124.016-.248.031-.372.109-1.441-2.945-.604-3.348.186-1.659 3.116-1.442 6.155-1.752 9.658-.357 4.232-.915 8.449-1.132 12.696-.093 1.69.419 10.185-.775 11.1-1.054.806-8.262-1.411-9.487-1.566-1.845-.217-4.325.171-6.015-.558-3.1-1.333-2.294-2.651-.682-5.038a139.143 139.143 0 0 1 3.953-5.565c5.658-7.627 11.906-15.332 18.603-22.044 1.426-1.426-1.97-1.38-2.79-.574-.094.093-.202.186-.295.295-1.473 1.41 1.937 1.364 2.759.558ZM352.844 299.93c3.023 5.752 9.069 9.271 14.913 11.673 3.271 1.334 6.681 2.31 10.045 3.38 2.868.914 8.387 1.798 10.604 4.139.186-.403.356-.791.542-1.194-.837.558-2.465.31-3.488.775-1.72.791-2.806 2.171-4.092 3.55-2.264 2.434-13.983 14.386-16.727 11.596-1.178-1.194-.884-6.278-1.581-8.03-1.349-3.364-2.899-6.558-4.015-10.03-1.07-3.255-2.325-6.48-2.744-9.89-.264-2.202.155-4.062-1.256-5.938-.713-.945-4.061.248-3.224 1.365 1.194 1.581.868 3.193 1.008 4.976.186 2.387.79 4.325 1.519 6.588 1.193 3.767 2.372 7.519 3.968 11.146.822 1.876 1.798 3.612 2.233 5.643.356 1.705-.341 4.03.325 5.565.698 1.581.744 1.736 2.527 1.783 4.542.108 11.13-5.333 14.463-7.891 2.76-2.124 4.558-5.1 7.224-7.27 1.969-1.597 4.031-1.597 6.015-2.899.341-.233.961-.76.543-1.194-2.992-3.162-9.612-3.984-13.673-5.27-7.86-2.496-17.533-5.659-21.641-13.472-.636-1.209-4-.077-3.488.899ZM113.409 176.846c2.527 12.355 5.302 24.663 8.464 36.879 1.504 5.813 3.194 11.58 4.744 17.393 1.039 3.876 1.891 9.131 4.62 12.262.558.636 2.666.047 2.573-.883-.155-1.535-.76-2.744-1.597-4.015-.48-.745-3.069.124-2.48 1.038.852 1.287 1.256 2.217 1.411 3.69.852-.295 1.705-.589 2.573-.884-2.945-3.379-3.674-9.255-4.821-13.425-1.597-5.875-3.287-11.704-4.79-17.594-2.992-11.658-5.612-23.393-8.03-35.174-.202-.915-2.868-.264-2.667.713ZM112.12 161.204c-1.566.434-2.202 1.535-2.186 3.1.031 1.706.852 2.806 2.341 3.597.682.356 1.86-.031 2.294-.62 1.008-1.334 2.186-3.767 1.597-5.457-.837-2.372-4.589-1.085-4.387 1.209.077.868 2.759.295 2.666-.713a2.415 2.415 0 0 1 0-.481l-1.581.094c1.875.728.015 4.278-.76 5.286.76-.202 1.535-.419 2.294-.62-.93-.496-1.534-1.101-1.72-2.155a4.542 4.542 0 0 1-.047-1.209c.016-.171.062-.326.078-.496.046-.481.465-.419-.233-.233.388-.108 1.302-.465 1.147-1.023-.139-.512-1.147-.372-1.503-.279ZM144.254 170.969c-1.302 2.852-.294 3.968.621 6.728 1.085 3.224 1.503 6.867 2.278 10.185 1.628 6.96 2.915 13.889 3.829 20.989a784.878 784.878 0 0 1 2.31 19.967c.512 5.023 1.163 11.022 3.876 15.393.434.698 2.434.016 2.573-.682.279-1.426.233-2.635.171-4.108-.031-.837-2.713-.31-2.667.713a13.639 13.639 0 0 1-.17 3.721c.852-.233 1.705-.465 2.573-.682-2.775-4.465-3.271-10.821-3.767-15.905-.62-6.403-1.411-12.758-2.217-19.13-.79-6.216-1.767-12.355-3.224-18.463a477.36 477.36 0 0 1-2.139-9.332c-.745-3.333-2.915-6.371-1.365-9.751.341-.775-2.294-.511-2.682.357Z" fill="#272525"/><path d="M145.057 169.93c5.348-.047 10.666-.388 15.781 1.503 3.969 1.458 7.813 3.659 10.96 6.511 5.689 5.163 8.96 15.301 9.673 22.835.915 9.627-2.418 19.098-8.092 26.803-2.464 3.348-4.898 7.642-8.107 10.34-2.667 2.247-6.093 2.325-8.681 4.65l2.402.047c.031-.186.078-.357.109-.543.202-1.007-2.48-.573-2.666.341-.031.186-.078.357-.109.543-.217 1.085 2.062.356 2.403.046 1.922-1.72 4.232-1.705 6.325-2.852 1.348-.744 2.465-1.86 3.519-2.977 3.178-3.41 6.123-7.595 8.696-11.486 5.302-8.046 8.077-17.688 6.682-27.3-1.209-8.464-4.899-18.09-11.906-23.299-8.045-5.984-16.215-6.728-25.919-6.65-1.023-.016-2.853 1.503-1.07 1.488ZM219.185 174.102c-6.155-.528-12.216-.543-18.386-.869-2.093-.108-5.782-.899-7.363 1.225-.853 1.163-.512 2.697-.481 4.031.093 3.534-.124 7.084.078 10.618.403 6.775.759 13.456.852 20.246.093 6.96-.883 13.874-.93 20.85-.015 3.008-.992 8.325 1.039 11.007 2.48 3.255 8.542 1.798 11.967 1.798 3.132 0 6.294.186 9.426.139 2.34-.031 4.495-.883 6.805-.945.992-.031 2.821-1.566 1.039-1.504-1.783.047-3.333.465-5.116.713-2.527.341-5.054.109-7.596.109-3.829-.016-13.44 1.488-14.711-2.915-1.039-3.55-.217-9.301-.14-12.82.109-4.805.868-9.565.899-14.37.093-10.604-.945-21.083-.945-31.671 0-2.093-.527-4.65 2.201-5.162 1.566-.294 3.844.233 5.457.233 5.022 0 9.859.387 14.85.806 1.039.077 2.837-1.364 1.055-1.519Z" fill="#272525"/><path d="M192.966 208.097c3.535.31 7.038 1.333 10.619 1.612 3.752.295 7.534.047 11.301.016.992-.016 2.822-1.519 1.039-1.504-3.969.031-7.937.279-11.89-.093-3.395-.31-6.682-1.24-10.03-1.535-1.023-.108-2.821 1.334-1.039 1.504ZM236.903 230.854c-.574.744-.574.775-.962 1.628.884-.109 1.783-.217 2.667-.341.79-11.596.062-23.47.062-35.097 0-6.836-.248-13.688 0-20.509.108-2.852.325-5.689.759-8.51.109-.698.279-3.101.698-3.829.651-1.116-.372-.837.698-.062 1.844 1.348 3.317 4.805 4.511 6.727a187.657 187.657 0 0 1 5.255 9.023c2.759 5.022 5.348 10.153 7.952 15.254 2.682 5.255 5.38 10.51 7.875 15.874 2.14 4.588 3.876 9.44 6.744 13.641.821-.341 1.643-.697 2.48-1.038-.171-.186-.341-.388-.511-.574-.605-.682-3.163.279-2.481 1.039.171.186.341.387.512.573.573.652 3.1-.139 2.48-1.038-3.86-5.658-6.123-12.557-9.115-18.696-3.038-6.216-6.216-12.355-9.41-18.493-2.79-5.38-5.674-10.728-8.867-15.906-1.535-2.48-4.387-9.533-8.03-9.115-3.054.357-3.1 4.713-3.441 6.945-.946 6.278-.869 12.65-.791 18.975.077 7.007.046 14.013.046 21.02 0 7.999.481 16.153-.062 24.121-.077 1.21 2.341.357 2.667-.341.263-.418.527-.821.775-1.24.697-.914-1.969-.713-2.511-.031Z" fill="#272525"/><path d="M235.996 204.841c4.991-.062 9.905-.589 14.819-1.519 1.83-.341 3.643-.713 5.457-1.116 2.077-.465 5.317-2.155 7.333-2.233.992-.046 2.821-1.581 1.038-1.503-3.488.139-6.697 1.984-10.123 2.712-5.797 1.225-11.549 2.093-17.486 2.155-.992.016-2.821 1.535-1.038 1.504ZM312.342 170.458c-5.084-8.123-13.161-12.681-21.889-11.844-7.162.682-15.378 5.658-15.502 14.975-.186 12.867 11.782 18.153 20.138 22.447 7.456 3.845 14.881 8.96 15.781 19.285 1.162 13.378-9.457 23.78-20.944 19.16-1.054-.419-3.472.729-1.565 1.488 15.192 6.108 32.926-10.836 23.129-29.159-5.395-10.092-16.495-11.875-24.587-17.75-6.789-4.93-12.246-14.603-6.216-23.02 7.968-11.1 22.447-5.07 28.663 4.852.605.992 3.581.527 2.992-.434ZM199.208 41.373c-2.496-1.659-3.674-7.813-4.852-10.417-1.752-3.845-3.782-7.534-5.875-11.193-1.938-3.38-3.953-6.712-5.814-10.123-2.154-3.937 1.086-3.085 4.046-3.86 2.155-.558 7.968-4.046 9.565-3.348 1.938.868 1.69 6.898 1.752 8.495.372 10.495-1.116 20.85-1.349 31.314 1.163-.233 2.31-.45 3.473-.682v-.388c0-1.07-3.473-.418-3.473.93v.388c0 1.054 3.457.403 3.473-.682.279-12.278 2.883-25.067.899-37.313-.341-2.14-.496-4-2.744-4.45-1.24-.248-2.341.605-3.41.977-3.659 1.256-7.147 2.806-10.991 3.473-1.814.31-5.178.232-5.922 2.495-.76 2.31 2.899 6.604 3.829 8.232 3.658 6.34 7.565 12.634 10.278 19.455 1.178 2.945 1.565 6.526 4.356 8.387.93.62 4.139-.776 2.759-1.69Z" fill="#272525"/></svg>