<svg width="489" height="40" viewBox="0 0 489 40" fill="none" xmlns="http://www.w3.org/2000/svg">
<path d="M20.1588 1.39725C25.4218 1.39725 29.9564 3.26906 33.7627 7.01268L28.3352 12.4401C26.0327 10.1689 23.3228 9.03329 20.2058 9.03329C17.026 9.03329 14.3162 10.1689 12.0763 12.4401C9.82076 14.6957 8.69297 17.4134 8.69297 20.5931C8.69297 23.7728 9.82076 26.4905 12.0763 28.746C14.3006 31.0016 17.0104 32.1294 20.2058 32.1294C22.5553 32.1294 24.6934 31.4715 26.62 30.1558C28.39 28.9497 29.7136 27.399 30.5908 25.5036H19.7829V18.2435H39.2371C39.7384 24.7126 37.8979 30.0226 33.7157 34.1735C29.9407 37.9171 25.4139 39.7889 20.1353 39.7889C14.8096 39.7889 10.2907 37.9171 6.57838 34.1735C2.81909 30.4455 0.939453 25.9187 0.939453 20.5931C0.939453 15.3144 2.81909 10.7798 6.57838 6.98919C10.3063 3.21424 14.8253 1.32677 20.1353 1.32677L20.1588 1.39725Z" fill="#272525"></path>
<path d="M53.2066 1.63221H60.8192V39.507H53.2066V1.63221Z" fill="#272525"></path>
<path d="M98.942 1.53823V9.12728H83.717V16.7633H95.1358V24.3524H83.717V39.554H76.1044V1.53823H98.942Z" fill="#272525"></path>
<path d="M137.676 1.63221V9.17427H128.372V39.507H120.736V9.17427H111.408V1.63221H137.676Z" fill="#272525"></path>
<path d="M162.101 32.0589C163.197 32.0589 164.2 31.6751 165.108 30.9076C166.048 30.1244 166.518 29.2238 166.518 28.2056C166.518 26.7332 165.641 25.6055 163.886 24.8223C163.307 24.556 162.516 24.2819 161.513 23.9999L160.903 23.8355L160.339 23.671C159.9 23.5614 159.54 23.4595 159.258 23.3656C156.783 22.5197 154.762 21.2118 153.196 19.4418C151.442 17.4838 150.564 15.2831 150.564 12.8396C150.564 9.64418 151.7 6.9187 153.971 4.66313C156.227 2.42322 158.952 1.30327 162.148 1.30327C165.046 1.30327 167.575 2.25876 169.737 4.16972C171.898 6.04937 173.175 8.40675 173.567 11.2419L166.001 12.8396C166.001 11.7901 165.625 10.8894 164.873 10.1376C164.121 9.38573 163.229 9.0098 162.195 9.0098C161.13 9.0098 160.221 9.38573 159.469 10.1376C158.702 10.9051 158.318 11.8136 158.318 12.8631C158.318 14.3354 159.148 15.5102 160.809 16.3874C161.419 16.7163 162.179 17.0218 163.088 17.3037C163.385 17.3977 163.761 17.5152 164.215 17.6561L164.756 17.7971L165.273 17.9616C167.842 18.6978 169.94 19.9274 171.569 21.6504C173.371 23.5457 174.271 25.7464 174.271 28.2526C174.271 31.401 173.05 34.1187 170.606 36.4056C168.21 38.6611 165.398 39.7889 162.171 39.7889C159.227 39.7889 156.595 38.8413 154.277 36.946C151.959 35.035 150.58 32.6698 150.142 29.8503L157.707 28.2526C157.707 29.2708 158.177 30.1714 159.117 30.9546C160.025 31.7065 161.036 32.0824 162.148 32.0824L162.101 32.0589Z" fill="#272525"></path>
<path d="M229.066 11.3359C228.909 10.6623 228.572 10.0984 228.056 9.64418C227.492 9.17427 226.842 8.93931 226.105 8.93931C224.429 8.93931 223.45 9.69117 223.168 11.1949C223.09 11.6021 223.356 12.3932 223.967 13.5679C224.86 15.3066 225.8 16.8338 226.787 18.1496C227.351 18.9171 228.118 19.8099 229.089 20.828L230.382 22.1673C230.93 22.7468 231.392 23.2324 231.768 23.624C232.645 24.5795 233.334 25.2765 233.835 25.7151C233.976 25.0416 234.07 24.2349 234.117 23.2951C234.133 22.9975 234.149 22.5667 234.164 22.0028L234.188 21.3214L234.211 20.5931L241.33 20.4991C241.221 24.9476 240.696 28.2135 239.756 30.2967L240.015 30.4612L240.297 30.6492C240.532 30.7901 240.735 30.9154 240.908 31.0251C241.409 31.3227 241.863 31.5733 242.27 31.7769C243.414 32.3408 244.424 32.6071 245.301 32.5758L245.278 39.6245C243.649 39.6245 242.012 39.2955 240.367 38.6376C239.741 38.3714 239.075 38.0502 238.37 37.6743C238.088 37.5177 237.783 37.3454 237.454 37.1574C237.25 37.0321 236.968 36.8598 236.608 36.6405C236.169 36.3899 235.786 36.1158 235.457 35.8182C234.047 37.4315 232.089 38.5593 229.583 39.2015C227.797 39.6558 226.184 39.8829 224.743 39.8829C221.218 39.8829 218.234 38.6925 215.791 36.3116C213.363 33.962 212.149 31.0956 212.149 27.7122C212.196 25.5193 212.752 23.7415 213.817 22.3787C214.882 21.016 216.002 19.7707 217.177 18.643C217.287 18.5333 217.498 18.361 217.811 18.1261C217.232 17.3272 216.699 16.2699 216.214 14.9542C215.681 13.5288 215.399 12.26 215.368 11.1479C215.368 8.75135 216.331 6.58976 218.258 4.66313C219.104 3.81729 220.224 3.0576 221.618 2.38407C223.231 1.61655 224.727 1.23279 226.105 1.23279C228.706 1.23279 231.008 2.08646 233.013 3.7938C234.893 5.39149 236.099 7.37295 236.631 9.73816L229.066 11.3359ZM224.766 32.4348C225.534 32.4348 226.45 32.2625 227.515 31.9179C228.643 31.542 229.34 31.1504 229.606 30.7431V30.7666C229.168 30.3907 228.118 29.4509 226.458 27.9472C224.782 26.4435 223.419 24.8223 222.37 23.0836C221.68 23.5848 220.999 24.1722 220.325 24.8458C219.652 25.5193 219.339 26.514 219.386 27.8297C219.386 28.4719 219.566 29.1455 219.926 29.8503C220.239 30.4455 220.615 30.9468 221.054 31.354C221.79 32.0746 223.027 32.4348 224.766 32.4348Z" fill="#272525"></path>
<path d="M303.15 26.185L321.688 0.73938V39.507H314.075V23.812L303.15 38.8961L292.201 23.812V39.507H284.589V0.73938L303.15 26.185Z" fill="#272525"></path>
<path d="M359.834 1.53823V9.12728H344.609V16.7633H356.028V24.3524H344.609V31.9884H359.834V39.554H336.997V1.53823H359.834Z" fill="#272525"></path>
<path d="M373.71 1.63221H386.068C390.078 1.63221 393.383 2.91663 395.984 5.48547C397.252 6.75423 398.153 7.9525 398.686 9.08029C399.328 10.4587 399.649 12.1269 399.649 14.0848V15.0716C399.649 17.6248 398.85 20.0292 397.252 22.2848C396.109 23.8825 394.597 25.0494 392.718 25.7856L401.529 39.507H392.224L381.346 22.7547V39.507H373.733L373.71 1.63221ZM386.797 19.6533C388.175 19.6533 389.358 19.1285 390.345 18.0791C391.316 17.0296 391.801 15.7765 391.801 14.3198C391.801 12.9414 391.3 11.7274 390.298 10.678C389.264 9.67551 387.697 9.17427 385.599 9.17427H381.322V19.6298H384.259V19.6533H386.797Z" fill="#272525"></path>
<path d="M446.818 34.1735C443.058 37.9014 438.516 39.7654 433.19 39.7654C427.896 39.7498 423.377 37.8858 419.633 34.1735C415.874 30.4142 413.994 25.8874 413.994 20.5931C413.994 15.3144 415.874 10.7798 419.633 6.98919C423.408 3.21424 427.927 1.32677 433.19 1.32677L433.167 1.42075C438.367 1.42075 442.909 3.29256 446.794 7.03618L441.367 12.4636C439.08 10.2081 436.362 9.08029 433.214 9.08029C430.018 9.08029 427.308 10.2081 425.084 12.4636C422.829 14.7505 421.701 17.4682 421.701 20.6166C421.701 23.7963 422.829 26.514 425.084 28.7695C427.324 31.0094 430.034 32.1294 433.214 32.1294C436.409 32.1294 439.134 31.0016 441.39 28.746L446.818 34.1735Z" fill="#272525"></path>
<path d="M468.306 1.63221V16.7868H480.97V1.63221H488.559V39.507H480.97V24.3289H468.306V39.507H460.717V1.63221H468.306Z" fill="#272525"></path>
</svg>
