<svg width="90" height="143" fill="none" xmlns="http://www.w3.org/2000/svg"><path d="M71.503 72.32c-7.264-16.036-16.036-31.522-28.216-44.37C31.963 16.006 18.237 6.551 3.127.057c-.353-.15-1.052 0-1.185.4-1.587 4.68-.746 9.973-.267 14.787A154.049 154.049 0 0 0 4.07 30.982a152.703 152.703 0 0 0 9.266 29.566 147.365 147.365 0 0 0 14.7 26.425 128.69 128.69 0 0 0 4.477 6.031c1.005 1.272 1.751 2.309 3.487 2.238 3.942-.149 8.717-2.552 12.258-4.146a75.039 75.039 0 0 0 13.798-8.05c4.272-3.14 8.308-6.682 10.319-11.708.165-.424-1.147-.275-1.32.165C67.467 80.51 56.59 86.51 48.211 90.342a70.906 70.906 0 0 1-7.06 2.796c-2.536.848-5.002 1.9-7.099-.252-3.047-3.125-5.505-7.35-7.86-11.002C16.32 66.587 9.386 49.428 5.609 31.634a154.684 154.684 0 0 1-2.38-14.694C2.626 11.608 1.526 5.467 3.278.293c-.393.134-.794.267-1.186.4 15.046 6.464 28.71 15.88 39.98 27.769 12.14 12.808 20.88 28.223 28.12 44.204.197.463 1.493.055 1.312-.346Z" fill="#272525"/><path d="M20.674 37.703c5.38-5.073 13.759-5.936 19.193-.455 1.916 1.94 3.337 4.523 3.714 7.248.503 3.597-1.343 6.448-3.534 9.078-2.85 3.424-6.525 6.157-11.268 5.27-3.071-.581-5.686-2.45-7.46-4.995-2.993-4.28-5.058-12.894-.103-16.538.597-.44-.715-.464-1.06-.22-6.22 4.57-2.646 15.784 2.332 19.9 5.615 4.64 12.91 2.991 17.56-1.987 2.803-3 5.489-6.542 4.853-10.869-.527-3.542-2.655-6.785-5.521-8.882-6.133-4.476-14.504-2.732-19.758 2.223-.565.534.738.526 1.052.227Z" fill="#272525"/><path d="M24.978 39.989c3.683-4.052 10.53-2.882 14.025.997 3.526 3.927.212 8.08-3.275 10.515-2.371 1.657-5.7 2.796-8.465 1.532-1.343-.613-2.662-1.595-3.644-2.678-3.031-3.361-.534-7.084 1.523-10.217.33-.503-.989-.393-1.232-.031-1.351 2.05-3.409 4.916-3.15 7.515.244 2.458 2.396 4.17 4.335 5.395 4.838 3.047 8.858 1.107 13.02-2.278 4.445-3.628 5.097-8.732-.102-11.999-4.483-2.819-10.342-3.11-14.103 1.029-.51.573.77.55 1.068.22ZM18.773 8.766c-1.186 2.89-2.678 5.607-4.814 7.908-1.138 1.225-2.395 2.3-3.848 3.156-1.9 1.116-4.193 1.092-6.023 2.097.778-.432-.385-.628-.817-.392-.212.117-.416.235-.628.345-.377.212-.275.573.15.573 8.465-.008 14.3-6.51 17.307-13.86.165-.409-1.146-.26-1.327.173ZM54.918 41.607c7.53-3.26 16.027-.997 22.059 4.248 5.41 4.72 8.81 11.19 11.622 17.685.353-.18.707-.353 1.068-.534-4.861-1.46-9.73-3.235-14.685-4.335-3.298-.73-6.385-.699-9.416.888-.785.408.385.62.817.392 4.115-2.151 8.74-.36 12.8.864 3.22.966 6.447 1.94 9.667 2.906.228.07 1.233-.142 1.068-.534-3.322-7.673-7.57-15.55-14.81-20.174-6.212-3.966-13.908-4.893-20.709-1.948-.848.361-.078.801.519.542ZM16.05 64.78C9.766 66.971 5.203 72.178 2.824 78.295-.434 86.69 1.05 95.91 3.46 104.312c.126.448 1.264.126 1.32-.259.659-4.437 2.473-8.473 5.112-12.094 3.03-4.154 8.67-10.852 14.386-10.161.416.047 1.547-.629.809-.715-5.395-.652-9.777 3.33-13.224 7.005-4.249 4.523-7.484 9.926-8.403 16.13l1.32-.259c-2.16-7.523-3.582-15.58-1.47-23.292 1.854-6.777 6.472-12.981 13.257-15.345.871-.306.078-.754-.519-.542ZM65.93 81.217c-.015-.047 2.506 1.39 2.875 1.672a29.388 29.388 0 0 1 2.528 2.207 30.819 30.819 0 0 1 3.73 4.413c.912 1.312 2.749 3.197 1.642 4.877-.471.715-2.497 1.343-3.212 1.728-2.317 1.248-4.633 2.49-6.958 3.738-2.316 1.248-4.633 2.489-6.957 3.738-1.069.573-2.137 1.146-3.212 1.727-1.555.833-2.568 1.814-3.715-.117-.981-1.649-3.675-14.599-1.547-15.353.872-.306.079-.754-.518-.542-2.175.77-1.343 4.406-1.21 6.188.158 2.16.48 4.304.959 6.416.29 1.28.643 4.28 1.547 5.23 1.052 1.108 1.877.417 3.172-.275 4.288-2.293 8.56-4.601 12.84-6.894l6.416-3.448c1.107-.597 3.047-1.17 3.855-2.16 1.382-1.696-1.468-4.821-2.442-6.132-2.104-2.836-4.735-5.403-7.727-7.288-1.35-.848-2.434-1.374-3.542-.047-.047.055-.055.118-.047.188.063.173.134.346.196.519.181.431 1.485.039 1.328-.385Z" fill="#272525"/><path d="M74.055 97.692c5.285.11 9.855 7.531 12.454 11.458.338-.204.676-.408 1.021-.621-2.332-.274-4.782-.808-7.13-.855-.581-.008-1.257-.134-1.799.157-2.175 1.146.055 4.845.503 6.533 2.434 9.188 3.345 18.69 2.874 28.177.393-.134.793-.267 1.186-.401-9.518-5.018-15.91-14.481-17.363-25.098-.063-.44-1.382-.141-1.32.353.19 1.555-.227 2.733-1.428 3.746l1.185-.07c-.432-1.202-4.908-16.601-3.651-16.641.494-.015 1.398-.777.51-.746-2.097.063-2.144 1.767-1.869 3.589.73 4.83 2.034 9.565 3.691 14.151.157.424.966.118 1.186-.071 1.374-1.162 1.9-2.536 1.688-4.311l-1.32.353c1.477 10.759 8.003 20.308 17.639 25.389.267.141 1.162 0 1.185-.4.322-6.495.032-12.997-.989-19.429a91.007 91.007 0 0 0-2.034-9.486c-.479-1.767-2.065-4.248.51-4.932 1.485-.392 4.375.527 5.945.707.26.032 1.327-.149 1.021-.62-2.882-4.351-7.28-11.56-13.17-11.685-.51-.008-1.413.738-.525.753Z" fill="#272525"/><path d="M72.05 102.38c.684-.675 3.385 2.215 3.683 2.78 1.485 1.233.613 1.861-2.638 1.893a4.33 4.33 0 0 0-.903-.016c-.644.377-.848.047-1.225.982-.29.738.36 2.34.502 3.07l.919 4.563c.424 2.128 2.536 7.389.942 9.282l1.273-.165c-2.239-4.9-4.477-9.793-6.707-14.693-.18-.4-1.115-.165-1.272.165l-2.167 4.547 1.272-.165c-1.704-4.193-1.68-8.544.118-12.698.172-.409-1.131-.267-1.32.165-1.822 4.225-1.845 8.622-.118 12.886.165.409 1.123.157 1.273-.165l2.167-4.546-1.272.165c2.238 4.9 4.476 9.792 6.706 14.692.204.456 1.052.102 1.272-.165 1.013-1.201.566-2.528.291-3.965-.542-2.859-1.147-5.701-1.72-8.552-.133-.668-1.123-3.479-.8-3.989.604-.943 1.075-.354 1.9-.558 1.413-.353 2.513-.558 3.769-1.374.141-.087.353-.283.204-.456-1.453-1.665-4.61-6.47-7.217-3.903-.534.542.762.527 1.068.22ZM18.695 9.88A194.484 194.484 0 0 0 8.7 48.187c-.079.51 1.248.283 1.319-.165a195.039 195.039 0 0 1 9.997-38.306c.165-.432-1.155-.275-1.32.164ZM13.967 17.05a119.938 119.938 0 0 0-6.66 25.798c-.07.518 1.257.282 1.32-.165a119.48 119.48 0 0 1 6.659-25.797c.165-.432-1.154-.275-1.32.165ZM10.694 20.019A150.513 150.513 0 0 0 5.99 37.342c-.102.495 1.225.283 1.32-.165a149.657 149.657 0 0 1 4.703-17.323c.157-.448-1.162-.283-1.32.165ZM7.857 22.053A85.127 85.127 0 0 0 4.684 34.17c-.094.502 1.233.283 1.32-.165a85.909 85.909 0 0 1 3.172-12.117c.157-.448-1.17-.275-1.319.165ZM6.726 22.28c-.07-.172-.141-.353-.212-.526-.18-.448-1.217-.126-1.319.26a71.99 71.99 0 0 0-1.43 6.415c-.086.503 1.242.283 1.32-.165.377-2.16.856-4.295 1.43-6.416l-1.32.26c.07.172.141.353.212.526.188.455 1.492.063 1.32-.354ZM21.123 11.043a306.538 306.538 0 0 0-11.41 41.361c-.102.495 1.225.283 1.319-.165a305.395 305.395 0 0 1 11.41-41.36c.157-.44-1.162-.276-1.319.164ZM23.219 12.346a289.498 289.498 0 0 0-11.332 43.89c-.087.503 1.24.283 1.32-.165a289.51 289.51 0 0 1 11.33-43.89c.15-.447-1.17-.275-1.318.165ZM25.923 14.263l-6.69 23.354c-.134.464 1.193.283 1.318-.165 2.23-7.782 4.46-15.572 6.691-23.354.134-.471-1.194-.283-1.32.165ZM16.63 45.117c-1.14 5.152-2.27 10.303-3.409 15.455-.11.486 1.217.282 1.32-.165 1.138-5.152 2.27-10.303 3.408-15.455.11-.487-1.217-.283-1.32.165ZM29.265 16.265a1.28 1.28 0 0 0 .086-.024c.173-.047.66-.243.573-.51-.015-.047-.031-.086-.047-.133-.157-.48-1.076-.071-1.272.164-.668.778-.738 2.176-.99 3.15-.47 1.853-.942 3.706-1.42 5.552-.904 3.518-1.8 7.036-2.702 10.554-.126.479 1.201.282 1.319-.165.809-3.15 1.61-6.29 2.419-9.44.377-1.483.754-2.96 1.138-4.444.346-1.367.558-4.115 1.469-5.175l-1.272.165c.015.047.031.086.047.133.188-.172.385-.337.573-.51l-.086.023c-.801.22-.629.888.165.66ZM18.735 52.106c-.55 4.186-2.553 7.97-3.196 12.133-.079.51 1.248.282 1.319-.165.652-4.162 2.646-7.947 3.196-12.133.07-.518-1.256-.283-1.32.165ZM32.273 18.723c.016-.023.04-.039.055-.063.07-.078.063-.196 0-.274a.777.777 0 0 0-.079-.087c-.274-.314-1.02-.031-1.225.244-1.138 1.515-1.303 4.696-1.75 6.541-.323 1.327-.645 2.654-.959 3.982-.29 1.225-.416 3.769-1.248 4.727l1.272-.165c-.008-.04-.016-.078-.024-.126l-.754.542c.024 0 .055 0 .079-.008.652-.039 1.1-.785.18-.73-.023 0-.055 0-.078.008-.228.016-.809.212-.754.542.008.04.016.078.024.125.086.503 1.107.032 1.272-.164 1.201-1.398 1.311-4.83 1.743-6.628.314-1.327.636-2.654.966-3.974.314-1.264.463-3.604 1.249-4.649-.409.079-.817.165-1.225.244.007-.04.007-.079.015-.118-.36.424.958.345 1.241.031ZM21.277 54.713c-.856 5.528-2.505 10.97-3.518 16.483-.095.503 1.24.283 1.319-.165 1.013-5.512 2.662-10.962 3.518-16.483.087-.518-1.248-.29-1.32.165ZM35.166 19.956c-.063-.416-.024-.337-.346-.612-.322-.267-1.147-.071-1.272.337a256.981 256.981 0 0 0-2.215 7.633c-.408 1.485-1.853 4.516-1.397 5.984.047.157.266.204.4.197.04 0 .079-.008.118-.008.487-.024 1.398-.793.51-.746.605-.032 1.822-6.102 1.963-6.612a244.353 244.353 0 0 1 1.94-6.613c-.424.11-.848.228-1.272.338.086.15.165.299.251.448.063.455 1.39.149 1.32-.346ZM36.537 22.547c-1.398 1.728-1.484 4.359-1.924 6.463-.236 1.155-1.555 4.288-.833 5.27.252.345 1.03.008 1.225-.244.024-.031.055-.063.079-.102.11-.141.031-.251-.086-.33l-.071-.047c-.353-.243-1.57.283-1.052.636l-.095-.188c.409-.079.817-.165 1.225-.244-.455-.62.84-4.476 1.021-5.347.393-1.9.495-4.304 1.744-5.835.36-.456-.958-.37-1.233-.032ZM38.837 24.943c-.95 1.044-1.335 2.583-1.79 3.887a50.064 50.064 0 0 0-1.586 5.638c-.087.37.589.283.746.244.063-.016.125-.024.18-.04.189-.039.526-.188.574-.416.015-.063.023-.125.039-.188.094-.503-1.233-.283-1.32.165-.015.063-.023.125-.039.188.189-.141.385-.275.574-.416-.063.016-.126.023-.181.04.251.078.503.164.746.243a48.96 48.96 0 0 1 1.154-4.335c.456-1.43.959-3.699 1.964-4.814.518-.55-.762-.526-1.06-.196ZM41.623 27.581c-.714 1.5-1.327 3.032-1.782 4.634-.306 1.083-1.155 2.991-.432 3.989.26.361 1.54-.087 1.225-.519-.573-.785.346-3.039.605-3.91.424-1.43.973-2.82 1.617-4.162.275-.574-1.044-.424-1.233-.032ZM45.236 30.636c-.031-.212-.062-.432-.094-.644-.07-.479-1.225-.079-1.32.26-.525 1.876-1.044 3.753-1.57 5.63-.377 1.35-1.21 3.07-1.138 4.468.008.102.18.173.259.18.039.008.078.008.117.016.37.047.904-.055 1.069-.44.015-.03.023-.062.039-.086.173-.416-1.139-.267-1.32.165-.015.032-.023.063-.039.087.354-.15.707-.291 1.068-.44.432.055 2.6-8.858 2.85-9.746l-1.318.26.094.643c.055.448 1.382.142 1.303-.353ZM46.863 33.612a37.427 37.427 0 0 0-3.377 9.77c-.102.494 1.233.282 1.32-.166a36.563 36.563 0 0 1 3.29-9.573c.275-.565-1.037-.416-1.233-.031ZM48.388 37.091a1545.319 1545.319 0 0 0-20.755 49.223c-.173.424 1.146.267 1.319-.165a1553.056 1553.056 0 0 1 20.755-49.223c.181-.408-1.123-.267-1.319.165ZM36.694 57.289c-1.225 4.233-3.668 8.135-5.466 12.156a179.975 179.975 0 0 0-5.38 13.492c-.156.44 1.163.274 1.32-.165 1.618-4.563 3.4-9.07 5.38-13.492 1.79-4.005 4.24-7.923 5.465-12.156.134-.463-1.186-.283-1.32.165ZM32.453 59.354c.566.668-1.413 4.217-1.688 4.892-.746 1.846-1.484 3.683-2.23 5.529-1.485 3.683-2.969 7.374-4.453 11.057-.173.416 1.146.267 1.32-.165 1.703-4.24 3.415-8.474 5.12-12.714l2.45-6.078c.353-.88 1.42-2.183.698-3.032-.282-.353-1.547.118-1.217.511ZM29.008 59.684a249.489 249.489 0 0 0-7.216 17.112c-.165.432 1.154.275 1.319-.165a245.592 245.592 0 0 1 7.217-17.112c.18-.392-1.123-.259-1.32.165ZM26.342 59.197c.252 1.115-.981 2.859-1.405 3.856a162.395 162.395 0 0 0-1.492 3.66c-1.03 2.63-1.98 5.3-2.867 7.986-.15.448 1.17.283 1.32-.165a153.156 153.156 0 0 1 3.282-9.039c.675-1.688 2.89-4.86 2.482-6.659-.103-.448-1.43-.11-1.32.361ZM23.995 58.404c-1.641 4.65-3.274 9.306-4.916 13.955-.157.44 1.163.275 1.32-.165 1.64-4.649 3.274-9.306 4.916-13.955.157-.44-1.163-.274-1.32.165ZM50.748 38.52C41.953 54.32 38.6 72.547 29.043 87.97c-.322.519.997.4 1.232.032 9.558-15.423 12.91-33.65 21.706-49.45.298-.55-1.02-.416-1.233-.032ZM52.054 40.688c-6.298 17.386-12.156 34.945-20.967 51.264-.299.55 1.02.408 1.233.031 8.834-16.38 14.732-34.01 21.053-51.46.157-.44-1.162-.283-1.319.165ZM54.067 42.612c-3.927 8.937-6.832 18.258-9.981 27.485-1.516 4.43-3.087 8.85-4.877 13.178a112.364 112.364 0 0 1-3.526 7.735c-.542 1.068-1.916 2.646-1.618 3.887.04.165.267.189.4.196.558.032.92-.102 1.25-.55a.224.224 0 0 0 0-.274c-.04-.047-.071-.087-.11-.134-.283-.353-1.555.11-1.225.519.384.479 3.682-5.953 3.989-6.612.91-1.956 1.759-3.927 2.568-5.922 1.767-4.342 3.314-8.764 4.821-13.2 3.016-8.898 5.85-17.85 9.636-26.457.173-.424-1.139-.283-1.327.15ZM55.572 45.635c-3.432 7.908-6.644 15.706-9.11 23.968-2.6 8.724-5.874 17.158-9.997 25.286-.282.558 1.037.416 1.233.031a149.546 149.546 0 0 0 9.777-24.438c2.6-8.615 5.843-16.758 9.424-25.012.165-.408-1.139-.267-1.328.165ZM57.858 48.745c.055-.008.102-.016.157-.031.244-.048.793-.189.754-.542-.008-.071-.016-.142-.023-.22-.024-.22-.432-.197-.574-.189-1.877.134-2.575 3.032-3.062 4.437-1.602 4.65-3.118 9.322-4.751 13.955a671.561 671.561 0 0 1-10.492 27.776c-.173.424 1.147.267 1.32-.165A674.109 674.109 0 0 0 53.821 59.81a476.213 476.213 0 0 0 1.892-5.639c.51-1.547 1.893-4.28 1.728-5.662l.754-.541a1.106 1.106 0 0 0-.157.031c-.628.126-1.092.903-.18.746Z" fill="#272525"/><path d="M60.165 50.166c-.008-.102-.023-.204-.031-.298a.218.218 0 0 0-.134-.142c-1.013-.337-1.398.071-1.94.872-1.162 1.704-1.649 4.696-2.308 6.644-.817 2.41-1.61 4.821-2.387 7.24a474.547 474.547 0 0 0-7.916 27.658c-.118.479 1.21.283 1.32-.165a483.93 483.93 0 0 1 5.99-21.493 453.757 453.757 0 0 1 5.074-15.628c.455-1.327.785-3.903 1.845-4.814l-1.052.212c.079.087.15.181.228.267.031.432 1.358.15 1.311-.353Z" fill="#272525"/><path d="M59.364 52.075a696.041 696.041 0 0 1-10.271 37.702c-.142.463 1.185.283 1.319-.165A695.95 695.95 0 0 0 60.684 51.91c.117-.487-1.21-.29-1.32.165ZM61.078 54.917c-3.15 11.426-6.306 22.86-9.455 34.286-.134.471 1.193.283 1.319-.165 3.149-11.426 6.306-22.86 9.455-34.286.133-.471-1.194-.283-1.32.165ZM62.867 58.302a646.692 646.692 0 0 1-7.798 28.16c-.141.464 1.186.284 1.32-.164a646.697 646.697 0 0 0 7.797-28.16c.118-.48-1.209-.283-1.319.164ZM64.949 61.349a262.758 262.758 0 0 1-5.042 18.078c-.502 1.578-1.492 3.4-1.453 5.065 0 .157.299.196.4.196h.229c.267 0 .848-.126.918-.456.016-.062.024-.125.04-.18.102-.495-1.225-.283-1.32.165-.015.063-.023.125-.039.18.306-.149.612-.306.919-.455.816.008 3.337-10.264 3.667-11.41a283.625 283.625 0 0 0 3-11.348c.118-.479-1.21-.283-1.32.165ZM66.325 64.615a139.349 139.349 0 0 1-4.201 17.034c-.142.455 1.178.282 1.32-.165a139.33 139.33 0 0 0 4.2-17.033c.095-.503-1.232-.283-1.319.165ZM69.134 68.267c-.016-.172-.04-.337-.055-.51-.055-.456-1.249-.102-1.32.259-.557 2.858-1.272 5.678-2.198 8.434-.425 1.257-2.348 4.21-1.398 5.356.29.345 1.555-.118 1.225-.519-.66-.793 1.633-5.371 1.97-6.47.708-2.293 1.265-4.618 1.729-6.974l-1.32.26c.016.172.04.337.055.51.04.447 1.367.157 1.312-.346Z" fill="#272525"/><path d="M68.875 71.18a37.047 37.047 0 0 0-2.371 6.793c-.118.48 1.209.283 1.319-.164a37.036 37.036 0 0 1 2.371-6.793c.181-.393-1.123-.26-1.319.165ZM71.444 103.236c1.853-.047 2.82 1.061 3.235 2.568.424-.141.848-.29 1.272-.432a4.196 4.196 0 0 1-1.554-2.073c-.393.165-.794.33-1.186.495l.809.62a640.2 640.2 0 0 0 1.225-.518c-.66-.754-1.241-1.209-2.105-1.68-.275-.15-1.146 0-1.186.4a15.202 15.202 0 0 0 .205 4.696l1.319-.353-1.673-5.741c-.133-.463-1.374-.118-1.32.354.22 1.963.433 3.926.653 5.889l1.319-.353a15.062 15.062 0 0 1-1.775-5.238c-.07-.463-1.335-.118-1.32.353.056 1.987.103 3.966.158 5.953l1.32-.353c-.59-2.16-1.17-4.327-1.76-6.487-.126-.479-1.335-.11-1.32.353.08 2.505.158 5.003.229 7.508l1.319-.354a81.638 81.638 0 0 1-1.28-8.025c-.047-.456-1.327-.126-1.32.353.016 2.717.04 5.442.056 8.159l1.319-.353c-.73-2.089-1.147-4.209-1.516-6.385-.078-.439-1.288-.125-1.319.26-.18 2.285-.353 4.578-.534 6.863.424-.11.848-.228 1.272-.338a3.93 3.93 0 0 1-.754-2.175l-1.32.354c.22 1.052.433 2.112.653 3.164.102.487 1.217.071 1.319-.259.66-2.144 1.311-4.28 1.971-6.424.26-.84.424-2.787 1.563-2.905.824-.087 2.426 1.79 2.905 2.316.338-.204.676-.408 1.021-.62-1.578-.503-3.172-3.031-.298-.707-.087-.063 1.421 1.461 1.288 1.477-.377.039-1.783-1.924-1.5-2.081.738-.417 2.112 2.819 2.206 3.18.393-.165.794-.33 1.186-.495-1.209-.526-3.345-2.073-4.79-1.288-1.288.699-1.076 2.937-.613 4.045.071.165.244.188.401.196 1.61.102 3.15-.683 4.547-1.414a48.272 48.272 0 0 0-1.068-.109c-.424 1.232-1.24 2.143-2.45 2.725.275.133.55.259.817.392 1.319-.817 2.143-1.782 2.764-3.22.196-.471-.943-.188-1.068-.109a20.403 20.403 0 0 0-6.094 5.347l1.272-.07c.141-1.414.44-2.655.958-3.974l-1.32.165c-.117 1.421-.337 2.309-1.06 3.628l1.273-.165c-.267-.589-.542-1.178-.81-1.759-.195-.432-1.468-.094-1.318.353a56.52 56.52 0 0 0 4.06 9.495c.227.424 1.5.063 1.319-.354a37.092 37.092 0 0 1-2.678-9.329l-1.32.353a74.812 74.812 0 0 1 3.165 9.377c.118.455 1.414.118 1.32-.354l-1.579-7.813-1.319.353 2.71 12.172 1.319-.353a127.727 127.727 0 0 1-6.605-14.701c-.165-.448-1.39-.126-1.319.353l.471 3.118c.424-.141.848-.29 1.272-.432-.8-.879-.58-2.128-2.01-1.861-.251.047-.675.157-.754.448-.275 1.099-.078 2.269-.031 3.4.015.416 1.343.157 1.319-.353-.094-2.223-.196-4.453-.29-6.675-.016-.424-1.288-.142-1.32.259-.173 2.356-.338 4.712-.51 7.06l1.319-.26c-.236-2.458-.471-4.908-.715-7.366l-1.319.354.636 4.476c.063.432 1.312.133 1.32-.259.015-1.492.054-6.408 1.554-7.264 2.545-1.461 5.238 1.61 6.801 3.274.377-.196.762-.384 1.139-.581a20.405 20.405 0 0 1-4.021-3.117c-.377.196-.762.385-1.139.581 1.579.832 3.157 1.673 4.743 2.505.354-.212.7-.424 1.053-.636a50.167 50.167 0 0 1-5.874-3.196c-.354.212-.7.424-1.052.636.73.275 1.366.699 1.916 1.264 1.397 1.257.424 1.885-2.922 1.893-.384-.189-1.594.369-1.052.636 1.61.801 4.06 1.131 5.513-.283 1.743-1.688-.919-3.455-2.403-4.154-.354-.165-1.602.283-1.052.636a48.788 48.788 0 0 0 5.874 3.196c.369.173 1.61-.345 1.052-.636-1.579-.832-3.157-1.673-4.743-2.505-.275-.149-1.524.196-1.14.581a21.175 21.175 0 0 0 4.194 3.235c.283.165 1.5-.188 1.14-.581-1.603-1.704-4.705-5.12-7.461-4.272-3.141.966-3.408 6.432-3.44 8.945l1.32-.259-.637-4.476c-.062-.448-1.366-.134-1.319.353.236 2.458.471 4.908.715 7.366.039.432 1.295.133 1.319-.259.173-2.356.338-4.712.51-7.06l-1.319.259c.094 2.223.197 4.453.29 6.675l1.32-.353c-.047-1.005-.212-2.23.031-3.212l-.754.448c.063-.008.762 1.437.959 1.649.267.298 1.342.031 1.272-.432l-.471-3.118-1.32.353a127.097 127.097 0 0 0 6.605 14.701c.22.409 1.429.134 1.319-.353l-2.71-12.172c-.101-.456-1.413-.126-1.319.353l1.579 7.814 1.32-.354a74.798 74.798 0 0 0-3.166-9.376c-.18-.44-1.39-.126-1.319.353a37.43 37.43 0 0 0 2.678 9.33l1.32-.354a56.907 56.907 0 0 1-4.06-9.494l-1.32.353c.267.589.542 1.178.809 1.76.188.408 1.1.157 1.272-.165.683-1.249 1.037-2.388 1.154-3.817.047-.581-1.178-.196-1.319.165a14.128 14.128 0 0 0-.958 3.974c-.055.589 1.1.165 1.272-.071 1.594-2.081 3.408-3.675 5.686-4.979a55.183 55.183 0 0 0-1.068-.11c-.4 1.162-1.155 2.05-2.262 2.662-.77.479.4.621.817.393 1.429-.793 2.3-1.775 2.953-3.282.204-.472-.95-.181-1.069-.11-.981.965-2.002 1.177-3.062.636-.4-.872-.314-1.563.251-2.066.754-.424 2.168.55 3.04.935.274.118 1.303-.024 1.185-.495-.51-2.026-2.921-5.144-5.151-3.337-.08.062-.158.18-.134.282.479 1.901 2.772 4.492 4.814 3.283.118-.071.29-.212.251-.369-.487-2.066-3.675-4.806-5.874-3.652-.15.079-.251.204-.251.369.015 1.484 1.264 2.223 2.52 2.615.236.079 1.375-.228 1.022-.62-1.147-1.249-3.448-3.581-5.34-2.38-.896.566-1.037 1.634-1.343 2.584-.793 2.489-1.532 4.994-2.301 7.492l1.319-.259c-.22-1.053-.432-2.113-.652-3.165-.094-.456-1.39-.126-1.32.353.134.943.37 1.539.85 2.34.195.33 1.24.024 1.271-.337.18-2.285.354-4.579.534-6.864l-1.319.259c.369 2.176.785 4.296 1.516 6.385.165.479 1.327.11 1.319-.354-.016-2.717-.04-5.442-.055-8.159l-1.32.354a84.065 84.065 0 0 0 1.28 8.025c.103.472 1.336.11 1.32-.353-.079-2.505-.157-5.002-.228-7.507l-1.32.353c.59 2.159 1.171 4.327 1.76 6.486.126.479 1.335.11 1.32-.353-.056-1.987-.103-3.966-.158-5.952l-1.32.353a15.172 15.172 0 0 0 1.776 5.238c.227.416 1.374.149 1.319-.354-.22-1.963-.432-3.926-.652-5.889l-1.32.353 1.674 5.741c.133.455 1.413.117 1.319-.354a15.237 15.237 0 0 1-.204-4.507l-1.186.4c.785.354 1.43.872 1.924 1.555.29.33 1.555-.102 1.225-.518-.471-.589-.29-.448-.99-.746-.227-.094-1.39.047-1.185.494.44.951.84 1.532 1.649 2.239.267.235 1.405.055 1.272-.432-.55-1.971-2.026-3.008-4.044-2.961-.48-.008-1.382.754-.495.73Z" fill="#272525"/></svg>