<svg width="128" height="178" fill="none" xmlns="http://www.w3.org/2000/svg"><path d="M48.498 81.314c-.895-2.529 1.147-5.882 1.98-8.253 1.099-3.142 2.379-6.197 3.769-9.22 2.843-6.196 5.937-12.345 9.69-18.046 7.257-11.018 16.327-20.159 25.703-29.323 4.225-4.13 8.49-8.324 13.005-12.133.691-.58 2.638-2.371 3.102-2.356 1.342.024.934.118 1.201 1.273.228.966.024 2.363.055 3.337.126 3.322.361 6.644.448 9.965.345 13.68-1.194 27.337-3.346 40.836-1.107 6.973-2.528 13.585-4.264 20.433-1.782 7.036-2.623 14.277-4.327 21.352-.196.817 2.05.487 2.238-.282 1.704-7.076 2.545-14.316 4.327-21.353a236.685 236.685 0 0 0 4.382-21.171c2.364-14.803 3.762-29.731 3.071-44.73-.079-1.65-.197-3.299-.267-4.948-.063-1.547.314-3.589-.087-5.112-.314-1.194-.636-1.633-1.963-1.578-1.712.07-3.471 1.696-4.735 2.662-2.898 2.199-5.49 4.821-8.16 7.287-10.412 9.604-20.511 19.358-28.953 30.784-4.893 6.62-8.827 13.774-12.337 21.203-1.665 3.518-3.244 7.083-4.555 10.758-.958 2.694-3.212 6.377-2.207 9.22.267.77 2.49.133 2.23-.605Z" fill="#272525"/><path d="M45.968 82.665c6.008 1.319 11.152 4.225 16.79 6.651 5.654 2.435 11.308 4.861 16.939 7.343 4.209 1.86 9.258 5.976 14.002 6.086 2.458.063 2.85-1.233 3.321-3.424.181-.833-2.065-.487-2.238.282-.557 2.561-1.515 1.783-3.91.684-1.98-.903-3.833-2.113-5.804-3.063-4.35-2.097-8.842-3.895-13.271-5.819-8.034-3.487-15.95-8.088-24.478-9.957-.699-.15-2.615.942-1.35 1.217ZM72.007 31.385c-.07.157-.133.314-.204.463.597-.251 1.202-.494 1.799-.746-5.317-.589-10.665-1.555-15.989-.172-4.885 1.264-9.243 3.973-12.753 7.562-4.225 4.327-7.57 9.714-10.688 14.866-2.992 4.963-7.123 10.852-7.46 16.805-.008.188.047.322.227.4 2.985 1.335 6.251.652 9.416.597 1.688-.031 3.377-.047 5.065-.165 2.623-.188 5.277-1.21 7.884-1.225.84-.008 2.372-1.28.872-1.264-3.384.023-6.557 1.201-9.95 1.343-2.536.102-5.387.47-7.915.29-2.93-.212-3.526-1.264-2.757-3.8.59-1.948 1.61-3.73 2.568-5.513 1.555-2.89 3.118-5.772 4.846-8.568 3.423-5.528 7.09-11.544 12.195-15.69 7.02-5.701 14.646-5.167 23.072-4.24.636.07 1.516-.095 1.798-.747.071-.157.134-.314.205-.463.306-.699-1.909-.463-2.23.267ZM107.089 43.808c6.243 5.285 12.384 11.701 15.667 19.28 3.322 7.672 2.301 16.059 1.358 24.147-.447 3.88-1.248 7.46-2.277 11.23-.212.77-.393 3.738-.958 4.421-1.602 1.924-3.919-.942-5.049-1.861-6.063-4.908-11.741-10.185-15.934-16.813-.393-.62-2.568.094-2.073.871 2.599 4.1 5.725 7.736 9.258 11.057 3.134 2.945 6.613 6.463 10.241 8.78 5.999 3.824 6.769-6.628 7.688-10.005 1.256-4.649 1.869-9.722 2.151-14.528.267-4.547.566-9.879-.746-14.26-2.78-9.314-9.989-17.05-17.237-23.182-.612-.519-2.701.345-2.089.863ZM95.741 34.118c-3.33-3.691-10.17-2.09-13.719.51-5.442 3.982-3.541 11.387 1.484 14.756 4.618 3.094 10.767 3.958 13.413-2.058 1.233-2.795 1.531-6 .77-8.944-.464-1.783-1.107-4.971-2.984-5.835-.66-.306-2.702.66-1.783 1.084 2.065.95 3.07 6.753 2.976 8.693-.086 1.673-.479 3.471-1.138 5.01-.181.55-.448 1.06-.801 1.524-1.65.47-3.299.942-4.948 1.413-.738-.086-1.79-.864-2.426-1.21-3.338-1.845-6.243-5.331-5.623-9.391.777-5.073 8.874-8.921 12.706-4.673.518.574 2.646-.235 2.073-.88ZM86.426 63.071c-1.618-3.643-9.094-3.793-12.243-2.473-2.568 1.076-5.19 3.463-6.227 6.07-1.406 3.542 1.39 6.856 3.84 9.235 3.903 3.793 10.735 6.55 14.779 1.469 2.175-2.741 2.466-5.906 1.523-9.086-.683-2.317-1.013-5.403-3.518-6.471-.667-.283-2.701.691-1.774 1.084 2.27.966 3.95 7.02 3.746 9.29-.063.73-.385 1.594-.62 2.285-.849 2.45-1.006 2.442-3.841 3.267-2.733.793-2.882.84-4.97-.385-1.155-.675-2.27-1.398-3.244-2.332-1.264-1.218-2.332-2.694-3.236-4.202-1.72-2.866-.282-5.638 2.066-7.711 2.19-1.94 9.792-3.283 11.489.557.337.778 2.528.087 2.23-.597Z" fill="#272525"/><path d="M57.528 86.756c-1.972 3.149-4.155 6.031-6.581 8.842-1.1 1.273-4.995 5.285-4.445 7.264.471 1.689 4.076 1.94 5.41 2.356 4.54 1.422 9.016 3 13.54 4.469 3.533 1.146 6.925 2.583 10.42 3.777 1.162.392 2.529 1.013 3.628.18 1.704-1.295 1.484-5.426 1.696-7.232.409-3.479 1.163-6.934.754-10.445-.086-.761-2.136-.188-2.238.44-.008.07-.023.134-.031.204-.134.864 2.112.48 2.238-.282.008-.07.023-.134.031-.204-.746.149-1.492.29-2.238.44.377 3.195-.275 6.29-.675 9.446-.173 1.367-.252 2.741-.464 4.1 0 0-1.083 3.486.189 2.505-.636.494-6.392-2.333-7.5-2.702-3.125-1.028-6.266-2.002-9.376-3.07a761.263 761.263 0 0 0-8.214-2.749c-.895-.29-2.686-.589-3.495-1.146-.738.118-1.029-.204-.864-.966-.267-.628-.141-1.17.37-1.641.958-2.505 3.306-4.54 4.978-6.55 1.838-2.199 3.44-4.562 4.955-6.989.534-.872-1.704-.667-2.088-.047ZM57.715 111.611c-6.212-2.505-13.735 6.117-15.95 10.986-.22.479.786.495.967.479.989-.094 1.342-.291 2.293-.597-.322.102 4.02-1.311 4.31-1.06 1.218 1.021-1.672 8.057-1.907 9.502-.464 2.819-.016 5.364.408 8.159.228 1.492.26 6.016 1.508 7.131 2.144 1.908 4.97-2.67 5.842-3.652 2.042-2.293 4.28-4.672 6.126-7.107 1.665-2.199 2.473-4.672 3.62-7.13-.668.227-1.335.455-2.01.683 2.952 1.076 1.853 5.544 4.216 6.753.503.26 1.406.016 1.783-.353 1.743-1.72 1.916-5.254 1.68-7.539-.463-4.578-2.575-9.588-6.101-12.604-1.626-1.39-4.892-4.24-7.178-3.667-2.583.652-3.871 5.073-4.091 7.272-.047.487.628.534.966.479 1.963-.322 3.534-1.202 5.277-2.191l-1.814-.189c-.047 4.162-4.5 7.453-4.94 11.764-.023.212.063.291.228.401 5.05 3.431 14.12-11.937 8.882-15.267-.613-.392-2.678.511-1.783 1.084 3.99 2.529-3.502 13.908-5.033 12.84-.786-.55 4.853-9.267 4.868-11.104.008-.833-1.413-.417-1.814-.189-.322.181-2.827 1.484-3.588 1.618.322.157.644.322.966.479.188-1.94 1.036-5.136 2.842-6.149l-1.586.212c4.508 2.026 8.246 5.12 10.028 9.808 1.17 3.063 3.251 9.754.37 12.589l1.782-.354c-.856-.44-1.414-3.219-1.838-4.068-.612-1.225-1.02-2.191-2.38-2.685-.667-.244-1.688 0-2.01.683-1.633 3.51-3.086 6.157-5.575 9.078-2.12 2.497-4.186 6.212-6.91 7.986l1.586-.212c-1.1-.471-1.32-4.13-1.492-5.112-.48-2.67-1.084-5.748-.84-8.45.33-3.604 3.03-7.837 2.355-11.379-.04-.188-.283-.259-.432-.306-2.788-.856-5.638 1.398-8.347 1.649.322.157.643.322.965.479 1.469-3.227 7.712-11.332 11.937-9.627.707.227 2.74-.746 1.814-1.123ZM83.102 33.662c-1.437 1.343-1.076 4.06-1.084 5.85-.008 2.144-.573 5.654.668 7.54.274.415 1.72-.072 1.382-.582-.982-1.492-.526-4.327-.55-6-.023-1.53-.558-5.316.77-6.557.636-.597-.825-.589-1.186-.251Z" fill="#272525"/><path d="M87.525 33.803c.015-.07.031-.141.055-.22.133-.55-1.367-.322-1.492.189-1.257 5.089-2.168 10.79-1.25 16.028.087.494 1.14.11 1.344-.079.392-.353.408-.377.534-.895.133-.55-1.367-.322-1.492.188-.079.157-.157.307-.244.464.448-.024.895-.055 1.343-.079-.91-5.183.008-10.774 1.249-15.816l-1.492.189c-.016.07-.032.141-.055.22-.118.55 1.382.322 1.5-.189Z" fill="#272525"/><path d="M89.693 33.01c-1.838 5.026-3.236 11.45-2.435 16.813.079.51 1.43.126 1.492-.29.008-.063.024-.134.032-.197.086-.58-1.414-.322-1.492.189-.008.063-.024.133-.032.196.495-.094.99-.196 1.492-.29-.793-5.301.62-11.646 2.435-16.601.172-.503-1.312-.322-1.492.18ZM92.47 33.05c-.746 3.706-1.398 7.436-1.775 11.198-.188 1.885-1.138 4.884-.62 6.667.149.518 1.641.118 1.492-.4-.299-1.037.275-2.678.385-3.739.125-1.295.22-2.599.36-3.895.378-3.36.982-6.698 1.65-10.012.11-.566-1.39-.322-1.492.18ZM94.109 35.311a62.484 62.484 0 0 0-1.249 7.531c-.275 2.607-.078 5.199-.557 7.79-.11.574 1.374.306 1.492-.188l.047-.212c.133-.55-1.367-.322-1.492.188l-.047.212 1.492-.188c.487-2.615.275-5.175.557-7.79.275-2.529.676-5.05 1.249-7.531.126-.55-1.374-.322-1.492.188ZM71.694 63.558a2.1 2.1 0 0 1 .055-.212l-1.492.189c-.651 2.827.063 5.67-.133 8.528-.008.126.031.212.149.267.079.04.157.07.236.11.44.204 1.798-.432 1.185-.722-.18-.087-.133-3.314-.149-3.613-.11-1.61-.165-3.18.204-4.759.126-.55-1.366-.314-1.492.189a2.12 2.12 0 0 1-.055.212c-.133.55 1.367.322 1.492-.189Z" fill="#272525"/><path d="M73.852 61.886c-1.335 1.397-1.217 3.353-1.42 5.167-.323 2.921-1.022 5.709-.394 8.63.11.51 1.422.126 1.492-.29.008-.063.024-.134.032-.197.094-.573-1.406-.322-1.492.189-.008.063-.024.133-.032.196.495-.094.99-.196 1.492-.29-.55-2.56-.055-4.98.275-7.523.228-1.713-.047-4.288 1.241-5.631.597-.636-.856-.613-1.194-.251ZM75.385 61.681c.031 2.757-.11 5.513.078 8.262.181 2.599-.322 5.363.322 7.9.134.518 1.265.11 1.438-.18.039-.064.078-.126.117-.197.354-.597-1.138-.456-1.39-.032-.039.063-.078.126-.118.197.48-.063.959-.126 1.438-.18-.62-2.427-.142-5.364-.322-7.901-.197-2.748-.055-5.505-.079-8.261 0-.471-1.492-.189-1.484.392ZM78.753 61.76c-.99 5.395-.966 11.976-.094 17.386.086.526 1.406.11 1.492-.29.031-.165.07-.338.102-.503.118-.557-1.382-.322-1.492.189-.031.165-.07.337-.102.502.495-.094.99-.196 1.492-.29-.864-5.388-.903-11.772.094-17.175.102-.573-1.398-.33-1.492.18ZM82.043 60.998c-.102 5.82-1.021 11.466-.644 17.292a.247.247 0 0 0 .15.157c.078.04.148.071.227.11.44.205 1.798-.424 1.186-.722-1.092-.518-.15-7.437-.079-8.316.243-2.914.597-5.788.652-8.717.008-.605-1.484-.298-1.492.196ZM84.855 63.535c-.243 4.248.07 8.701-.612 12.902-.095.574 1.405.322 1.492-.188.675-4.194.36-8.654.612-12.902.032-.605-1.46-.315-1.492.188ZM92.394 11.784c2.356 2.497 4.837 4.743 7.979 6.172 2.316 1.06 5.025 1.241 7.193 2.498.345.204.911-.024 1.193-.236l.322-.251c.668-.518-.816-.542-1.193-.243l-.322.25 1.193-.235c-2.057-1.194-4.531-1.343-6.737-2.3-3.26-1.406-5.812-3.676-8.23-6.236-.37-.377-1.783.165-1.398.581Z" fill="#272525"/><path d="M99.5 7.826c-1.326.487-1.923 1.288-2.756 2.426.464.008.927.024 1.39.032a26.359 26.359 0 0 1 2.238-3.338c.432-.55-1.044-.369-1.287-.141-1.312 1.225-2.663 2.364-3.84 3.714.463.008.926.024 1.39.032a7.307 7.307 0 0 1 2.332-2.128c-.4-.04-.801-.087-1.21-.126.024.754-.204 1.43-.699 2.042-.392.683 1.076.298 1.288.141 1.076-.817 1.736-2.073 2.78-2.85-.447-.008-.895-.016-1.343-.032-.463 1.437-1.358 2.796-2.12 4.092-.385.651 1.123.337 1.39.03 1.539-1.782 2.552-3.95 4.068-5.685-.479.024-.958.055-1.437.079-.016 1.673-.927 2.82-1.594 4.288-.652 1.413-.95 2.96-1.94 4.193.463.008.927.024 1.39.031 1.021-1.892 2.081-3.753 3.102-5.661.754-1.414 1.5-3.746 2.528-4.94-.479.024-.958.055-1.437.079-.447 4.028-2.937 7.39-4.138 11.174-.031.11.055.228.15.267 3.313 1.304 5.551-8.952 6.682-10.295-.479.024-.958.055-1.437.079-.008 3.604-3.165 6.604-3.558 10.177-.07.644 1.249.212 1.438-.079 1.892-2.897 2.379-6.407 4.075-9.407-.479.023-.958.055-1.437.078-.526 2.105-1.272 4.13-1.814 6.212l1.492-.189c.338-1.429 2.819-6.87-.471-6.439-1.249.165-2.222 1.516-2.992 2.348-1.641 1.79-2.686 3.91-4.162 5.811.463.008.927.024 1.39.032.887-1.312 1.877-3.055.777-4.54-.541-.738-1.468-1.185-2.332-.651-3.565 2.222 4.233 7.46 5.474 8.45.431-.22.856-.432 1.287-.652-2.34-1.57-4.664-4.531-7.515-5.183-.314-.07-1.146.07-1.201.495-.252 1.947 3.479 4.012 4.947 2.363 1.626-1.83-2.85-3.565-4.154-3.643-.322-.016-.801.125-.982.408-1.727 2.623 2.749 4.013 4.65 4.233.337.039 1.13-.048 1.201-.495.51-3.141-9.526-3.361-3.463 1.979 1.099.966 3.282 2.364 4.476.777 1.295-1.727-2.011-6.478-3.668-6.973-2.01-.597-2.34 1.115-1.735 2.654.872 2.215 4.083 5.717 6.808 5.152 4.272-.888.825-8.505-1.201-4.893-.864 1.547.11 4.555 2.191 4.005 2.819-.746 2.552-5.89 1.563-7.805-.181-.346-.754-.228-1.037-.11-1.979.848-2.081 6.274.016 6.989.408.141 1.021.031 1.288-.346 1.437-2.01 1.861-5.395 1.421-7.782-.094-.495-1.461-.141-1.492.29-.11 1.571.008 3.04.133 4.618.118 1.406-.204 3.102.409 4.374.22.456 1.06.165 1.343-.078.824-.723.879-1.477.015-2.223-.353-.298-.973-.07-1.288.173-.714.542-1.547 1.5-2.489 1.358-.306.267-.605.542-.911.81 1.476.204 2.843-.048 4.343.07.392.031 1.578-.644.746-.825-1.665-.369-3.055-1.46-4.704-1.68-.267-.031-1.531.188-1.147.699.998 1.327 5.348 3.227 6.809 1.728.118-.118.22-.26.094-.417-1.091-1.343-3.534-2.56-5.034-.997-1.727 1.798.951 2.623 2.38 2.835.369.055.919-.055 1.146-.393.503-.746.299-1.767.448-2.685.078-.48-.825-.315-1.037-.213-1.209.59-3.07 1.579-4.303.448-1.076-.981.817-4.555 1.115-5.16.958-1.963 2.207-3.784 1.838-6.046-.095-.565-1.257-.04-1.437.18-1.304 1.571-1.445 3.534-1.893 5.466-.133.59 1.264.252 1.437-.078 1.414-2.686 2.921-5.552 3.298-8.6.063-.494-.809-.298-1.036-.211-2.733 1.06-3.848 4.798-6.102 6.518l1.288.141c.738-1.343 1.892-2.78 2.953-3.832.691-.691 1.382-1.084 1.821-1.98.307-.627-.91-.4-1.154-.235-1.908 1.265-3.565 2.969-5.6 4.037l1.155.235c.558-1.091 1.799-2.08 2.733-2.803-.447-.008-.895-.016-1.343-.032-.408.998-1.452 1.806-2.246 2.498-.667.58.841.51 1.194.243.919-.691 1.539-1.57 2.395-2.293 1.202-1.013 1.963-2.003 1.814.314-.102 1.626-.699 3.125-.683 4.775.008.494 1.406.117 1.492-.29.346-1.642.777-3.26 1.154-4.893l-1.492.188c-.22 2.497-.047 5.309.346 7.814.078.518 1.413.118 1.492-.29.298-1.595 1.335-5.356.016-6.786-.346-.369-1.273-.023-1.437.385-1.045 2.552-.731 5.52-1.1 8.222-.078.605 1.367.283 1.492-.188.676-2.521 1.846-5.717.126-8.097-.22-.298-.935-.078-1.154.071-.982.652-.911 1.256-1.288 2.395-.833 2.544-1.492 5.05-2.105 7.665-.126.55 1.374.322 1.492-.189.432-1.845.785-3.738 1.359-5.544.267-.848.691-3.377 1.468-3.895l-1.154.07c1.61 2.23.392 5.348-.236 7.696l1.492-.188c.369-2.694.055-5.678 1.1-8.222-.479.126-.958.26-1.437.385 1.099 1.186.133 5.065-.118 6.392.495-.094.989-.196 1.492-.29-.338-2.176-.542-5.395-.346-7.602.055-.613-1.382-.29-1.492.188-.377 1.634-.801 3.251-1.154 4.893.495-.095.989-.197 1.492-.29-.016-1.234 1.916-6.432-.102-7.155-2.136-.77-4.987 3.675-6.102 4.516.401.078.793.164 1.194.243.966-.84 2.049-1.72 2.544-2.93.236-.58-1.194-.148-1.343-.03-1.044.808-2.316 1.821-2.929 3.015-.33.652.919.361 1.154.236 2.042-1.068 3.684-2.765 5.6-4.037l-1.155-.235c-.542 1.107-1.649 1.656-2.442 2.536a18.075 18.075 0 0 0-2.332 3.275c-.377.69 1.068.306 1.288.141 1.947-1.484 3.196-5.261 5.497-6.149l-1.037-.212c-.369 2.969-1.822 5.764-3.196 8.38.479-.024.958-.056 1.437-.08.424-1.829.55-3.745 1.79-5.245-.479.063-.958.126-1.437.18.526 3.26-5.238 8.607-2.646 11.733 1.641 1.987 4.437.04 6.078-.762l-1.037-.212-.518 1.343c-.047.079-.094.236 0 .306.055.275.118.55.173.825.385-.134.77-.26 1.146-.393-1.091-.165.228-.66.063-1.02-.023-.056-1.028-.37-1.453-.535-.801-.306-1.853-.675-2.387-1.374-.385.236-.762.463-1.146.699 1.531.196 3.133 1.327 4.704 1.68.251-.274.494-.55.746-.824-1.343-.11-2.67.15-4.013-.04-.464-.062-1.759.684-.911.81 2.175.33 2.976-.684 4.594-1.917-.432.055-.856.11-1.288.173.055.463.118.927.173 1.39.447-.024.895-.055 1.343-.078-.448-.927-.252-2.12-.315-3.102-.11-1.924-.369-3.738-.235-5.686-.495.094-.99.196-1.492.29.392 2.145-.016 5.521-1.32 7.351.432-.118.856-.228 1.288-.345-1.138-.385-1.798-5.144-.612-5.655-.346-.039-.691-.07-1.037-.11a6.27 6.27 0 0 1 .519 4.398c-.346 1.359-1.123 2.85-1.453.59-.283-1.917.094-1.58.22-.142.039.416.353 1.468.078 1.845-.997 1.374-2.882-.385-3.612-1.029-.37-.322-2.835-3.8-2.458-3.895.542-.141 2.576 3.197 2.686 3.62.738 2.694-1.736.786-2.545-.314-1.987-2.677 1.838-1.688 1.587-.172l1.201-.495c-.094-.008-5.74-1.618-4.217-2.678.047-.031 1.272.542 1.35.62 1.548 1.602-1.232 1.092-1.005-.675l-1.201.495c2.74.628 4.979 3.573 7.248 5.096.354.236 1.696-.33 1.288-.651-1.594-1.265-3.392-2.262-4.68-3.88-.668-.832-1.241-1.947-1.17-2.38.573.181.644.692.212 1.524a6.935 6.935 0 0 1-1.06 2.026c-.393.582 1.107.393 1.39.032 1.02-1.312 3.07-6.078 4.774-6.408.299-.66.55-.683.762-.07.345.274.4.604.149.98.063 1.147-.675 2.804-.942 3.935-.134.55 1.358.314 1.492-.188.542-2.09 1.288-4.1 1.814-6.212.149-.59-1.265-.236-1.437.078-1.689 2.992-2.183 6.518-4.076 9.408.479-.023.958-.055 1.437-.078.393-3.581 3.55-6.542 3.557-10.178 0-.675-1.217-.188-1.437.079-1.138 1.35-1.444 3.22-2.112 4.822-.408.973-1.893 2.952-1.995 3.973-.133 1.343.652-.314 1.021-.872.511-.777.746-1.9 1.115-2.756.911-2.105 1.893-4.154 2.152-6.463.079-.675-1.241-.157-1.437.079-1.178 1.366-1.673 3.369-2.529 4.94-1.028 1.892-2.089 3.776-3.102 5.661-.36.668 1.131.353 1.39.031.911-1.138 1.17-2.395 1.736-3.714.746-1.735 1.892-3.023 1.908-4.987.008-.675-1.209-.18-1.437.079-1.516 1.735-2.529 3.903-4.068 5.686.464.007.927.023 1.39.03.817-1.39 1.728-2.771 2.223-4.302.196-.613-1.186-.15-1.343-.032-1.076.801-1.689 2.018-2.78 2.85l1.288.142c.44-.77.714-1.35.8-2.254.056-.573-.965-.251-1.209-.125-1.225.628-1.931 1.46-2.795 2.536-.424.534 1.091.377 1.39.031 1.115-1.28 2.41-2.347 3.651-3.502l-1.288-.141A27.195 27.195 0 0 0 96.8 10.26c-.361.636 1.123.385 1.39.032a5.284 5.284 0 0 1 1.963-1.846c.911-.369.024-.871-.651-.62ZM34.376 108.171c-7.46 4.625-11.309 14.033-15.164 21.532-4.531 8.811-8.906 17.811-12.848 26.905-1.21 2.795-8.976 20.802-3.463 21.171.448.032 1.437-.22 1.555-.777.047-.204.086-.416.133-.621.173-.832-2.073-.487-2.238.283-.047.204-.086.416-.133.62l1.555-.777c-2.592-.173 4.075-18.454 4.931-20.41 3.778-8.685 7.948-17.261 12.259-25.695 3.714-7.256 7.601-17.103 14.803-21.572 1.28-.785-.668-1.107-1.39-.659ZM31.967 136.654c-6 10.962-13.42 21.721-16.962 33.791-.212.722 1.295.44 1.555.322.69-.314.981-.456 1.068-1.249.094-.887-2.152-.479-2.239.283l.283.047c.519.11 1.037.212 1.555.322 3.503-11.929 10.869-22.624 16.805-33.461.527-.935-1.711-.707-2.065-.055Z" fill="#272525"/></svg>