<svg width="18" height="18" fill="none" xmlns="http://www.w3.org/2000/svg"><path fill-rule="evenodd" clip-rule="evenodd" d="m16.96 5.287-4.208-4.245a.75.75 0 0 0-1.058 0L1.044 11.655a.75.75 0 0 0 0 1.057l4.245 4.245a.75.75 0 0 0 1.058 0l2.122-2.122 6.368-6.368 2.122-2.122a.75.75 0 0 0 0-1.058Zm-2.656 1.59-.533-.532a.75.75 0 1 0-1.057 1.065l.532.532L12.181 9l-1.59-1.59a.75.75 0 0 0-1.057 1.057l1.59 1.59-1.065 1.065-.525-.532a.753.753 0 1 0-1.065 1.065L9 12.18l-1.057 1.065-1.598-1.59a.75.75 0 0 0-1.057 0 .75.75 0 0 0 0 1.057l1.59 1.59-1.058 1.065-3.187-3.187 9.547-9.548L15.37 5.82l-1.065 1.057Z" fill="#524983"/></svg>