<svg width="32" height="31" fill="none" xmlns="http://www.w3.org/2000/svg"><path d="M30.064 10.075 23.132 8.73c-.667-.134-1.334-.537-1.6-1.209L18.066 1.21c-.933-1.612-3.332-1.612-4.132 0l-3.466 6.313c-.4.672-.934 1.075-1.6 1.209l-6.932 1.344C.07 10.478-.597 12.76.603 14.105l4.799 5.239c.533.537.667 1.208.667 1.88l-.8 7.12c-.267 1.88 1.733 3.224 3.333 2.417L15 27.671a2.578 2.578 0 0 1 2 0l6.398 3.09c1.734.806 3.6-.537 3.333-2.417l-.8-7.12c-.133-.672.133-1.477.667-1.88l4.8-5.24c1.199-1.477.532-3.626-1.334-4.03Z" fill="#1FAB8A"/></svg>