<svg width="33" height="34" fill="none" xmlns="http://www.w3.org/2000/svg"><path d="M31.787 19.673c1.014-8.534-.487-13.922-3.194-16.36h.001C24.224-.85 9.467-1.467 4.24 3.498 1.89 5.928 1.064 9.492.973 13.904.883 18.318.775 26.586 8.48 28.829h.007l-.007 3.425s-.053 1.388.834 1.667c1.014.328 1.472-.316 4.626-4.082 5.273.457 9.323-.591 9.783-.744 1.065-.357 7.09-1.154 8.064-9.422ZM14.46 27.428s-3.337 4.162-4.375 5.242c-.34.352-.712.32-.707-.378 0-.457.026-5.686.026-5.686-6.532-1.872-6.147-8.913-6.076-12.596.07-3.684.744-6.702 2.733-8.734 4.586-4.3 17.524-3.339 20.82-.24 4.03 3.572 2.596 13.666 2.605 14.01-.828 6.901-5.711 7.339-6.609 7.638-.384.127-3.945 1.043-8.417.744Z" fill="#8E24AA"/><path d="M16.305 6.084c-.545 0-.545.85 0 .857 4.23.032 7.713 2.98 7.752 8.388 0 .571.835.564.828-.007h-.001c-.046-5.827-3.85-9.205-8.579-9.238Z" fill="#8E24AA"/><path d="M21.87 14.434c-.013.563.82.59.828.02.07-3.213-1.912-5.86-5.634-6.139-.546-.04-.602.817-.059.857 3.229.245 4.93 2.448 4.864 5.262ZM20.978 18.088c-.7-.405-1.412-.153-1.707.245l-.616.797c-.313.405-.897.351-.897.351-4.268-1.129-5.41-5.595-5.41-5.595s-.052-.604.339-.929l.77-.637c.385-.306.629-1.042.237-1.766-1.048-1.893-1.752-2.546-2.11-3.047-.377-.471-.943-.578-1.532-.259h-.013c-1.225.717-2.566 2.058-2.137 3.438.732 1.456 2.077 6.096 6.365 9.602 2.015 1.658 5.204 3.358 6.558 3.75l.012.02c1.334.444 2.631-.95 3.324-2.21v-.01c.307-.611.205-1.189-.244-1.567-.796-.776-1.996-1.633-2.94-2.183Z" fill="#8E24AA"/><path d="M17.647 11.475c1.36.08 2.02.79 2.091 2.25.026.57.854.531.829-.04-.09-1.906-1.085-2.968-2.875-3.067-.545-.032-.596.824-.045.857Z" fill="#8E24AA"/></svg>