<svg width="34" height="34" fill="none" xmlns="http://www.w3.org/2000/svg"><g clip-path="url('#clip0_1_946')"><path d="M17.012 0h-.008C7.634 0 .016 7.621.016 16.992c0 3.717 1.198 7.162 3.235 9.96l-2.118 6.312 6.531-2.087a16.846 16.846 0 0 0 9.348 2.808C26.382 33.985 34 26.36 34 16.992S26.381 0 17.012 0Z" fill="#4CAF50"/><path d="M26.899 23.995c-.41 1.158-2.037 2.118-3.335 2.398-.888.19-2.047.34-5.951-1.278-4.994-2.069-8.21-7.143-8.46-7.473-.24-.329-2.018-2.686-2.018-5.125 0-2.438 1.238-3.626 1.737-4.135.41-.419 1.088-.61 1.738-.61.21 0 .399.01.569.02.5.02.75.05 1.079.838.41.988 1.408 3.426 1.527 3.677.121.25.242.59.072.92-.159.34-.3.49-.55.78-.25.288-.488.509-.739.819-.23.27-.489.559-.2 1.058.29.488 1.288 2.117 2.757 3.426 1.897 1.689 3.435 2.228 3.985 2.457.41.17.899.13 1.198-.189.38-.41.85-1.09 1.328-1.758.34-.48.768-.54 1.219-.37.459.16 2.886 1.36 3.386 1.608.499.25.828.37.949.58.119.21.119 1.198-.291 2.357Z" fill="#FAFAFA"/></g><defs><clipPath id="clip0_1_946"><path fill="#fff" transform="translate(.016)" d="M0 0h33.985v33.985H0z"/></clipPath></defs></svg>